<?xml version="1.0" encoding="UTF-8"?>
<svg id="Layer_1" data-name="Layer 1" xmlns="http://www.w3.org/2000/svg" viewBox="0 0 112.93 101.6">
  <defs>
    <style>
      .cls-1 {
        fill: #2775ba;
      }
    </style>
  </defs>
  <path class="cls-1" d="m55.73,99.86c-6.65.04-13.27-.33-19.88-1.01-5.59-.57-11.16-1.38-16.6-2.82-3.12-.83-6.15-1.96-9.2-3.03-.49-.17-.95-.64-1.24-1.08-.82-1.28-1-2.7-.92-4.24.32-5.85,2.51-11.1,5.01-16.28,2.56-5.31,6.88-8.78,11.99-11.4,4.03-2.07,8.3-3.46,12.72-4.4.28-.06.55-.13.83-.22,1.65-.52,3.06-.21,4.6.68,4.9,2.85,10.25,3.92,15.91,3.4,4.17-.38,8.03-1.66,11.65-3.76.47-.27,1.16-.38,1.69-.27,4.06.84,8.04,1.96,11.85,3.63,4.53,1.98,8.7,4.48,11.91,8.34,1.98,2.38,3.28,5.16,4.38,8,1.04,2.67,1.96,5.4,2.66,8.17.45,1.76.47,3.65.54,5.48.05,1.27-.47,2.49-1.33,3.4-.51.55-1.36.83-2.09,1.11-4.14,1.59-8.42,2.68-12.77,3.53-10.48,2.03-21.07,2.7-31.71,2.76Zm0-2.95c3.52-.11,7.05-.12,10.57-.35,4.29-.28,8.59-.62,12.85-1.15,3.44-.43,6.85-1.12,10.25-1.79,3.51-.69,6.93-1.71,10.24-3.06.63-.25.95-.71.92-1.29-.1-1.83-.11-3.7-.47-5.48-.38-1.86-1.07-3.67-1.72-5.47-1.02-2.8-2.18-5.55-3.88-8.01-2.22-3.21-5.34-5.38-8.74-7.17-3.77-1.99-7.82-3.26-11.93-4.34-1.3-.34-2.38-.21-3.59.45-3.35,1.83-7,2.86-10.8,3.19-6.05.54-11.84-.46-17.2-3.39-1.3-.71-2.51-1.12-3.94-.59-.31.12-.65.18-.98.26-4.21.96-8.26,2.35-12.04,4.43-3.62,1.98-6.82,4.47-8.92,8.1-1.94,3.35-3.33,6.94-4.49,10.63-.7,2.22-.93,4.51-.99,6.82-.03,1.23.21,1.62,1.35,2.04,1.53.56,3.06,1.13,4.62,1.58,5.88,1.73,11.91,2.74,17.98,3.42,6.94.78,13.9,1.13,20.88,1.16Z"/>
  <path class="cls-1" d="m55.74,1.5c1.06,0,2.13,0,3.19,0,1.12,0,1.74.61,1.76,1.72.02,1.27.03,2.54,0,3.81-.02.56.24.77.7.95,1.15.45,2.31.89,3.43,1.43.45.22.7.13,1.01-.18.87-.89,1.75-1.77,2.64-2.64.96-.95,1.64-.95,2.6,0,1.46,1.44,2.9,2.89,4.35,4.34.9.91.89,1.69-.02,2.61-.84.85-1.66,1.71-2.53,2.52-.41.38-.47.71-.23,1.22.52,1.12,1.02,2.26,1.44,3.43.18.5.44.64.9.64,1.24,0,2.49-.01,3.73,0,1.27.02,1.76.48,1.77,1.74.02,2.1.02,4.2,0,6.3-.01,1.25-.52,1.71-1.78,1.72-1.24,0-2.49.01-3.73,0-.48,0-.71.14-.89.64-.41,1.17-.91,2.31-1.43,3.43-.24.51-.18.84.23,1.22.89.83,1.74,1.71,2.59,2.58.84.86.85,1.66.02,2.5-1.49,1.51-2.99,3.02-4.5,4.51-.81.8-1.56.79-2.38,0-.91-.89-1.8-1.79-2.69-2.7-.35-.36-.64-.44-1.15-.2-1.11.53-2.28.97-3.44,1.41-.42.16-.62.39-.61.85.02,1.24.01,2.49,0,3.73,0,1.26-.62,1.88-1.85,1.88-2.07,0-4.15.01-6.22,0-1.15,0-1.78-.63-1.8-1.77-.02-1.27-.02-2.54,0-3.81,0-.5-.2-.73-.66-.9-1.11-.41-2.24-.81-3.29-1.35-.6-.3-.92-.2-1.34.23-.82.86-1.67,1.7-2.52,2.53-.91.89-1.63.89-2.54,0-1.45-1.44-2.9-2.89-4.34-4.34-.91-.92-.92-1.7-.02-2.61.85-.87,1.7-1.74,2.59-2.58.39-.37.42-.69.2-1.16-.52-1.15-1.03-2.31-1.46-3.5-.17-.47-.41-.6-.84-.59-1.27.01-2.54,0-3.81,0-1.17,0-1.71-.48-1.73-1.61-.03-2.18-.03-4.36,0-6.53.02-1.12.52-1.59,1.65-1.61,1.27-.03,2.54-.02,3.81,0,.5,0,.76-.16.95-.68.41-1.17.93-2.3,1.44-3.43.19-.43.2-.74-.17-1.1-.92-.87-1.81-1.78-2.69-2.69-.8-.82-.81-1.63-.01-2.44,1.49-1.51,2.99-3.02,4.51-4.51.85-.84,1.57-.82,2.43.02.91.89,1.81,1.79,2.69,2.7.33.34.6.41,1.08.18,1.09-.53,2.23-.96,3.36-1.39.5-.19.75-.42.73-1-.05-1.22-.02-2.44-.01-3.66.01-1.22.61-1.82,1.81-1.83,1.04,0,2.07,0,3.11,0Zm-19.11,22.76s0,0,0,.01c-.65,0-1.3.01-1.94,0-.5-.01-.7.2-.69.7.02.78.03,1.56,0,2.33-.03.65.22.88.85.86,1.14-.03,2.28-.03,3.42,0,1.05.03,1.43.35,1.67,1.37.47,1.95,1.19,3.79,2.28,5.49.6.94.53,1.47-.27,2.28-.8.81-1.6,1.63-2.42,2.41-.38.36-.43.64-.02,1.02.59.54,1.16,1.11,1.7,1.71.4.44.7.38,1.08-.03.73-.77,1.49-1.51,2.25-2.26.92-.91,1.5-.98,2.61-.29,1.64,1.03,3.39,1.76,5.29,2.13.9.18,1.39.77,1.41,1.69.02,1.17.02,2.33,0,3.5-.01.52.13.77.7.74.8-.04,1.61-.03,2.41,0,.56.02.71-.22.7-.74-.03-1.17-.02-2.33,0-3.5.02-.9.47-1.51,1.33-1.67,2.04-.4,3.89-1.22,5.64-2.31.77-.48,1.45-.41,2.11.23.84.81,1.67,1.63,2.47,2.47.38.4.68.48,1.08.03.54-.59,1.11-1.16,1.7-1.71.41-.38.37-.66-.01-1.02-.82-.79-1.62-1.6-2.42-2.41-.79-.8-.87-1.34-.27-2.28,1.07-1.67,1.79-3.49,2.26-5.41.28-1.15.64-1.43,1.85-1.45,1.11-.02,2.23-.02,3.34,0,.57.01.8-.21.77-.78-.03-.78-.03-1.56,0-2.33.02-.57-.2-.79-.77-.78-1.19.03-2.39.02-3.58,0-.93-.01-1.37-.38-1.58-1.27-.47-1.98-1.19-3.85-2.3-5.56-.6-.94-.53-1.47.26-2.27.8-.81,1.6-1.63,2.42-2.42.38-.37.42-.65.02-1.02-.61-.56-1.19-1.16-1.75-1.76-.35-.38-.62-.35-.96.01-.85.88-1.7,1.74-2.58,2.58-.65.63-1.27.68-2.04.21-1.73-1.07-3.55-1.89-5.56-2.3-1.02-.2-1.44-.78-1.45-1.82-.01-1.11-.03-2.23,0-3.34.02-.63-.22-.82-.82-.79-.72.04-1.45.04-2.18,0-.59-.03-.84.16-.82.79.04,1.09.02,2.18,0,3.27,0,1.13-.43,1.7-1.52,1.92-1.93.39-3.69,1.16-5.35,2.21-.92.58-1.51.52-2.29-.24-.83-.81-1.66-1.64-2.47-2.48-.34-.35-.61-.39-.96-.01-.56.61-1.15,1.2-1.75,1.76-.41.38-.37.66.01,1.02.86.82,1.7,1.67,2.53,2.53.65.67.74,1.27.24,2.04-1.18,1.8-1.94,3.76-2.41,5.85-.15.67-.61,1.08-1.32,1.11-.65.02-1.3,0-1.94,0Z"/>
  <path class="cls-1" d="m67.07,26.21c0,6.25-5.06,11.35-11.29,11.36-6.26.01-11.36-5.1-11.35-11.38.01-6.26,5.07-11.31,11.32-11.31,6.25,0,11.3,5.06,11.31,11.32Zm-11.34,8.32c4.64,0,8.38-3.69,8.39-8.3,0-4.59-3.76-8.33-8.38-8.33-4.59,0-8.33,3.71-8.35,8.27-.02,4.61,3.71,8.35,8.34,8.35Z"/>
</svg>