<?xml version="1.0" encoding="UTF-8"?>
<svg id="Layer_1" data-name="Layer 1" xmlns="http://www.w3.org/2000/svg" viewBox="0 0 136.07 101.6">
  <defs>
    <style>
      .cls-1 {
        fill: none;
        stroke: #2775ba;
        stroke-miterlimit: 10;
        stroke-width: 2.3px;
      }
    </style>
  </defs>
  <path class="cls-1" d="m79.98,26.95v4.28c0,.86-.69,1.55-1.55,1.55h-6.9v6.91c0,.86-.69,1.55-1.55,1.55h-4.26c-.86,0-1.55-.69-1.55-1.55v-6.93h-6.88c-.86,0-1.55-.69-1.55-1.55v-4.26c0-.59.35-1.13.88-1.38.21-.11.44-.16.67-.16h6.9v-6.91c0-.86.69-1.55,1.55-1.55h4.28c.86,0,1.55.69,1.55,1.55v6.9h6.9c.23,0,.46.05.67.16.53.27.86.81.85,1.4Z"/>
  <path class="cls-1" d="m84.76,25.57c-1.95-9.33-11.09-15.31-20.42-13.36-6.71,1.4-11.96,6.65-13.36,13.36H14.3v20.83h107.12v-20.83h-36.66Zm-4.77,5.66c0,.86-.69,1.55-1.55,1.55h-6.9v6.91c0,.86-.69,1.55-1.55,1.55h-4.26c-.86,0-1.55-.69-1.55-1.55v-6.93h-6.88c-.86,0-1.55-.69-1.55-1.55v-4.26c0-.59.35-1.13.88-1.38.21-.11.44-.16.67-.16h6.9v-6.91c0-.86.69-1.55,1.55-1.55h4.28c.86,0,1.55.69,1.55,1.55v6.9h6.9c.23,0,.46.05.67.16.53.25.88.79.88,1.38l-.03,4.29Z"/>
  <path class="cls-1" d="m79.98,26.95v4.28c0,.86-.69,1.55-1.55,1.55h-6.9v6.91c0,.86-.69,1.55-1.55,1.55h-4.26c-.86,0-1.55-.69-1.55-1.55v-6.93h-6.88c-.86,0-1.55-.69-1.55-1.55v-4.26c0-.59.35-1.13.88-1.38.21-.11.44-.16.67-.16h6.9v-6.91c0-.86.69-1.55,1.55-1.55h4.28c.86,0,1.55.69,1.55,1.55v6.9h6.9c.23,0,.46.05.67.16.53.27.86.81.85,1.4Z"/>
  <path class="cls-1" d="m110.88,4.82v20.74h-26.12c-1.95-9.33-11.09-15.31-20.42-13.36-6.71,1.4-11.96,6.65-13.36,13.36h-26.12V4.82h86.02Z"/>
  <rect class="cls-1" x="24.86" y="46.35" width="86.02" height="44.83"/>
  <rect class="cls-1" x="14.3" y="91.18" width="107.1" height="9.19"/>
  <rect class="cls-1" x="56.42" y="54.94" width="22.88" height="36.24"/>
  <line class="cls-1" x1="67.88" y1="54.94" x2="67.88" y2="91.18"/>
  <rect class="cls-1" x="31.59" y="54.94" width="18.12" height="18.12"/>
  <rect class="cls-1" x="85.81" y="54.75" width="18.12" height="18.12" transform="translate(-.63 .95) rotate(-.57)"/>
</svg>