<?xml version="1.0" encoding="UTF-8"?>
<svg id="Layer_1" data-name="Layer 1" xmlns="http://www.w3.org/2000/svg" viewBox="0 0 133.54 125.68">
  <defs>
    <style>
      .cls-1 {
        fill: #2775ba;
      }
    </style>
  </defs>
  <path class="cls-1" d="m103.02,48.33c-.31.05-.41.08-.5.07-2.64-.37-2.58-.37-2.56-3.15.07-8.01.08-16.02.14-24.02,0-1.14-.49-1.63-1.57-1.63-.98,0-1.96-.02-2.94-.02-13,0-26,0-39,0-2.61,0-2.6.05-2.59,2.64.02,3.88.13,7.76-.04,11.62-.09,2.22-.69,2.78-2.92,2.91-3.57.2-7.15.13-10.73.17-4.23.05-3.61-.2-3.61,3.52,0,10.9.1,21.8.1,32.71,0,6.68-.13,13.36-.15,20.04-.01,3.19.12,6.38.14,9.57,0,1.16.7,1.23,1.55,1.23,4.91,0,9.81,0,14.72,0,14.32.02,28.65.03,42.97.06,4.01,0,4.13-.14,4.06-4.11-.08-4.37-.05-8.74-.09-13.12,0-.79.16-1.43,1.09-1.36.84.06,2.01-.38,2.09,1.14.04.74.18,1.47.17,2.2-.06,4.72-.12,9.43-.23,14.15-.05,2.21-1.37,3.71-3.53,4.03-1.06.16-2.15.18-3.23.18-17.91,0-35.82.05-53.73-.06-2.49-.02-4.99-.77-7.48-1.19-1.18-.2-1.41-1.07-1.43-2.07-.05-3.53-.13-7.07-.13-10.6,0-18.48.04-36.95.05-55.43,0-1.85.24-3.4,1.76-4.86,4.47-4.27,8.71-8.77,13.05-13.18.58-.6,1.25-1.13,1.72-1.81.97-1.41,2.33-1.86,3.94-1.85,15.06.02,30.13.03,45.19.08,2.61,0,3.84,1.15,3.85,3.71.05,9.09.02,18.18.02,27.27,0,.38-.1.76-.16,1.16Zm-52.21-19.88s.08,0,.12,0c0-1.61.04-3.23-.02-4.84-.03-.99-.63-1.15-1.39-.64-.52.35-1.03.76-1.47,1.21-2.22,2.28-4.41,4.58-6.61,6.88-.47.5-.97.97-1.38,1.52-.52.7-.4,1.24.57,1.23,2.98-.01,5.96-.06,8.94-.09.87,0,1.23-.5,1.23-1.3,0-1.32,0-2.64,0-3.97Z"/>
  <path class="cls-1" d="m77.98,96.05c-1.32,0-2.65.02-3.97,0-1.28-.02-2.03-.64-2.04-1.98-.03-2.55-.08-5.1-.05-7.66,0-.43.27-.95.59-1.27,7.25-7.24,14.54-14.45,21.78-21.69,3.57-3.57,7.07-7.21,10.61-10.82,1.51-1.54,2.34-1.57,3.81-.06,2.39,2.45,4.75,4.94,7.17,7.36,1,1,1.04,1.93.13,2.95-.69.77-1.38,1.53-2.1,2.27-3.03,3.13-6.04,6.28-9.12,9.37-2.77,2.78-5.62,5.47-8.43,8.2-3.8,3.69-7.61,7.36-11.39,11.06-2.4,2.34-2.38,2.35-6.98,2.27Zm1.04-2.82c1.95.76,3.44-.57,4.91-1.93.33-.3.63-.62.94-.94,6.16-6.19,12.31-12.39,18.47-18.57,1.11-1.11,2.25-2.19,3.34-3.32.7-.73,1.4-1.57.5-2.56-1.32-1.45-2.68-2.88-4.13-4.19-1.31-1.18-2.22-1.07-3.43.19-2.82,2.93-5.58,5.92-8.45,8.82-4.63,4.68-9.28,9.32-13.99,13.92-1.29,1.26-2.04,2.51-2.13,4.43-.18,3.95-.34,3.95,3.97,4.15Zm34.21-31.57c-.42-.71-.59-1.19-.92-1.51-1.38-1.32-2.78-2.62-4.23-3.86-.8-.68-1.71-1-2.62-.09-.94.94-1.18,2.26-.38,3.19,1.21,1.41,2.47,2.81,3.87,4.01.51.44,1.67.64,2.24.35.82-.41,1.37-1.35,2.05-2.08Z"/>
  <path class="cls-1" d="m44.38,85.88c0-2.26-.04-4.51.01-6.77.04-1.88,1.46-3.37,3.34-3.4,4.26-.05,8.52-.08,12.78.03,2.99.08,4.08,1.19,4.08,4.21,0,4.2-.12,8.41-.34,12.61-.15,2.74-.79,3.4-3.53,3.46-4.45.11-8.91.07-13.36-.03-2.15-.05-2.92-.97-2.96-3.21-.04-2.3,0-4.61,0-6.92,0,0,0,0-.01,0Zm10.1,7.33s0,.01,0,.02c1.76,0,3.53.02,5.29,0,1.23-.02,2.17-.58,2.16-1.9-.04-3.48-.13-6.96-.34-10.43-.08-1.27-.9-2.19-2.32-2.21-3.48-.04-6.96-.05-10.44-.06-1.06,0-1.62.51-1.67,1.61-.15,3.48-.36,6.95-.47,10.43-.05,1.79.67,2.48,2.48,2.54,1.76.05,3.53.01,5.29.01Z"/>
  <path class="cls-1" d="m44.26,61.41c0-2.21,0-4.42,0-6.62,0-2.2.65-3.22,2.82-3.34,3.62-.21,7.25-.15,10.87-.1.34,0,.94.7.96,1.08.03.9,0,1.98-1.37,1.99-1.96.02-3.92,0-5.88.03-5.09.06-4.41-.31-4.7,4.52-.16,2.63-.05,5.29,0,7.93.03,1.74.48,2.17,2.23,2.17,3.43,0,6.86-.04,10.3-.11,1.74-.03,2.46-.84,2.47-2.6,0-.39-.22-.91-.04-1.14.37-.49.91-1.06,1.45-1.15.33-.05.96.66,1.16,1.15.21.51.07,1.16.07,1.75-.01,3.04-1.31,4.64-4.35,4.84-2.83.18-5.68.01-8.52-.04-1.37-.03-2.74-.12-4.11-.23-2.07-.17-3.03-1.14-3.07-3.2-.05-2.31-.01-4.62-.01-6.92-.08,0-.17,0-.25,0Z"/>
  <path class="cls-1" d="m53.06,58.8c.51.36,1.03.62,1.4,1.02.91.99,1.81,1.09,2.78.14,2.3-2.26,4.6-4.53,6.89-6.8.49-.48.88-1.19,1.46-1.41.59-.22,1.39-.04,2.03.17.14.05.16,1.05-.06,1.47-.37.73-.9,1.4-1.47,1.98-2.54,2.58-5.12,5.12-7.69,7.67-1.88,1.87-2.98,1.84-4.76-.14-.52-.58-1.12-1.11-1.59-1.73-.33-.44-.85-1.22-.69-1.44.3-.44,1.01-.6,1.69-.94Z"/>
  <path class="cls-1" d="m82.06,57.63c-2.75,0-5.49,0-8.24,0-.94,0-1.69-.24-1.75-1.32-.06-1.13.79-1.26,1.6-1.26,5.64-.04,11.27-.06,16.91-.07,1,0,1.39.59,1.39,1.52,0,1.05-.71,1.14-1.51,1.14-2.8,0-5.59,0-8.39,0Z"/>
  <path class="cls-1" d="m80.22,61.61c1.71,0,3.43.04,5.14-.01.95-.03,1.1.47,1.18,1.26.08.82.08,1.49-.92,1.66-.43.07-.87.17-1.31.17-3.28.03-6.56.06-9.84.04-.79,0-1.82.12-1.87-1.12-.05-1.24.65-1.94,1.88-1.96,1.91-.04,3.82-.01,5.73-.01,0,0,0-.02,0-.03Z"/>
  <g>
    <path class="cls-1" d="m90.55,26.67v1.05h2.98v4.25h-2.98v1.05h5.5v-6.35h-5.5Zm-9.75,0v6.35h5.5v-1.05h-2.98v-4.25h2.98v-1.05h-5.5Z"/>
    <polygon class="cls-1" points="91.6 31.97 91.6 37.47 85.26 37.47 85.26 31.97 86.3 31.97 86.3 34.95 90.55 34.95 90.55 31.97 91.6 31.97"/>
    <polygon class="cls-1" points="91.6 22.22 91.6 27.72 90.55 27.72 90.55 24.74 86.3 24.74 86.3 27.72 85.26 27.72 85.26 22.22 91.6 22.22"/>
  </g>
</svg>