<?xml version="1.0" encoding="UTF-8"?>
<svg id="Layer_1" data-name="Layer 1" xmlns="http://www.w3.org/2000/svg" viewBox="0 0 136.07 101.6">
  <defs>
    <style>
      .cls-1 {
        fill: #2775ba;
      }
    </style>
  </defs>
  <path class="cls-1" d="m54.98,27.82c.93.64,1.8,1.26,2.69,1.85,1.06.71,1.11,1.51.04,2.16-1.46.89-2.97,1.72-4.57,2.64.78.44,1.56.92,2.37,1.34,2.93,1.55,4.33,3.98,4.23,7.29-.04,1.17-.03,1.19,1.19,1.19,8.34,0,16.67-.01,25.01.02.93,0,1.33-.21,1.21-1.2-.09-.74-.03-1.51-.01-2.26.02-.53-.22-.72-.73-.72-2.55.02-5.1-.06-7.64.03-3.33.13-5.79-2.34-5.73-5.67.08-5.22.08-10.44,0-15.66-.05-3.26,2.39-5.74,5.65-5.72,9.09.05,18.18.04,27.27,0,3.09-.02,5.6,2.29,5.6,5.38,0,5.47.01,10.94,0,16.42,0,3.1-2.55,5.38-5.66,5.26-2.54-.1-5.1-.02-7.64-.04-.51,0-.75.15-.73.7.03.91.04,1.83,0,2.74-.03.61.24.74.79.73,7.86-.01,15.73,0,23.59-.02,1.29,0,1.62.27,1.62,1.57,0,14.91,0,29.81,0,44.72,0,1.28-.29,1.5-1.56,1.49-2.2-.03-4.39,0-6.74,0,0,.79,0,1.51,0,2.22,0,1.6,0,3.21,0,4.81,0,1.02-.36,1.33-1.39,1.29-.41-.02-.82-.03-1.23-.03-29.38,0-58.76-.01-88.14.02-3.04,0-2.65-.14-2.67-2.65,0-1.64-.02-3.27,0-4.91,0-.55-.16-.78-.76-.77-2.04.04-4.09.01-6.13.04-1.06.01-1.42-.28-1.42-1.36,0-15,0-30,0-45,0-1.07.38-1.44,1.39-1.44,3.05.01,6.1.03,9.15.03,1.55,0,1.43.2,1.41-1.4-.04-2.91,1.17-5.17,3.61-6.73.96-.62,2.01-1.1,3.23-1.77-.52-.23-.83-.35-1.12-.5-1.29-.71-2.6-1.38-3.85-2.16-.87-.54-.81-1.41.04-1.98.73-.49,1.44-1.01,2.19-1.46.54-.33.6-.64.31-1.22-1.48-2.93-2.26-6.05-2.34-9.34-.22-9.14,7.66-16.44,16.75-15.53,6.84.68,12.77,6.73,13.34,13.59.31,3.75-.42,7.31-1.98,10.71-.18.4-.37.8-.61,1.31ZM15.58,89.91h105.75v-43.47H15.58v43.47Zm76.69-51.89s0,0,0,0c4.65,0,9.31.02,13.96,0,2.02-.01,3.2-1.22,3.21-3.26.02-5.38.02-10.75,0-16.13,0-2.03-1.06-3.13-3.08-3.31-.53-.05-1.07-.08-1.6-.08-8.33,0-16.67,0-25,0-.66,0-1.32.04-1.97.11-1.43.15-2.57,1.33-2.57,2.78-.02,5.69-.03,11.38,0,17.07,0,1.64,1.25,2.82,2.9,2.83,4.72.02,9.43,0,14.15,0ZM23.89,98.22h89.13v-6.1H23.89v6.1Zm18.75-57.82c1.46-2.66,2.87-5.2,4.26-7.75.5-.92.97-1.06,1.89-.55.49.27,1.03.71,1.51.66,1.86-.18,3.55-.89,5.27-2-.85-.58-1.56-1.08-2.28-1.56-.84-.56-.96-1.04-.47-1.89,1.82-3.14,2.63-6.5,2.73-10.15.16-6.24-5.45-12.95-12.92-12.95-6.3,0-11.98,4.79-12.88,10.94-.62,4.28.37,8.23,2.45,11.95.63,1.12.57,1.46-.46,2.15-.69.46-1.36.95-2.04,1.42,0,.12,0,.24,0,.36,1.36.51,2.73,1.01,4.08,1.55.88.35,1.63.14,2.39-.35,1.14-.73,1.54-.59,2.2.62,1.26,2.32,2.54,4.62,3.82,6.93.1.18.24.33.45.61Zm-5.9-6.11c-2.35,1.31-4.59,2.52-6.79,3.79-2.01,1.16-3,3.9-2.27,6.22h1.2c8.93,0,17.86,0,26.8,0,1.97,0,1.95,0,1.92-1.98-.03-1.98-.92-3.41-2.62-4.37-1.78-1-3.56-1.99-5.35-2.98-.4-.22-.81-.42-1.24-.64-.26.45-.47.8-.66,1.15-1.36,2.48-2.71,4.96-4.11,7.42-.2.35-.68.74-1.03.75-.36,0-.85-.38-1.05-.72-1.38-2.43-2.7-4.89-4.04-7.34-.22-.41-.46-.8-.75-1.29Zm55.52,10.01c.82,0,1.63-.01,2.45,0,.51.01.75-.15.73-.7-.03-.91-.02-1.82,0-2.73.01-.52-.2-.74-.72-.73-.75.02-1.51-.02-2.26,0-1.05.03-2.11.1-3.16.15-.03,1.1-.04,2.19-.09,3.29-.02.53.17.73.71.71.78-.03,1.57,0,2.36,0Z"/>
  <path class="cls-1" d="m68.42,83.74c-14.72,0-29.44-.03-44.16.03-3.04.01-2.51-.43-2.51-2.53-.01-8.99,0-17.99,0-26.98,0-1.44.29-1.71,1.7-1.67.38.01.75,0,1.13,0,29.28,0,58.56,0,87.84,0,.22,0,.44,0,.66,0,2-.02,2.09.06,2.09,2.03,0,9.15,0,18.3,0,27.45,0,1.54-.19,1.72-1.75,1.67-.31-.01-.63,0-.94,0-14.69,0-29.38,0-44.06,0Zm44.61-29.06h-1c-29.06,0-58.12,0-87.18-.02-.84,0-1.06.23-1.06,1.06.03,8.3.02,16.6.02,24.9,0,.33.05.66.07.97h89.14v-26.91Z"/>
  <path class="cls-1" d="m52.63,20.81c-.27,2.73-1.61,6.22-4.52,8.94-3.46,3.25-8.24,3.1-11.54-.31-2.73-2.82-3.79-6.37-4.25-10.15-.09-.75.42-1.17,1.15-1.22,5.55-.4,10.39-2.5,14.64-6.03.56-.47,1.15-.4,1.67.15,1.94,2.1,3.01,4.53,2.86,8.62Zm-18.08-.54c.53,2.87,1.42,5.59,3.53,7.74,2.6,2.66,6.13,2.68,8.79.08,1.76-1.72,2.8-3.85,3.4-6.2.59-2.33.47-4.61-.82-6.72-.6-.98-.62-.99-1.55-.32-2.43,1.76-5.05,3.18-7.94,4.04-1.77.53-3.57.92-5.41,1.38Z"/>
  <path class="cls-1" d="m46.9,62.04c-.28.39-.44.69-.67.93-4.72,4.73-9.46,9.46-14.18,14.19-.5.5-1.06.77-1.64.21-.57-.56-.35-1.14.15-1.65,4.78-4.77,9.54-9.56,14.35-14.3.28-.28.91-.37,1.33-.29.26.05.44.57.67.91Z"/>
  <path class="cls-1" d="m38.11,61.94c-.26.4-.42.74-.67.99-1.78,1.81-3.58,3.59-5.37,5.39-.53.53-1.12.81-1.71.19-.55-.57-.26-1.14.23-1.64,1.82-1.81,3.61-3.65,5.47-5.42.3-.28.89-.38,1.32-.34.25.02.45.5.72.83Z"/>
</svg>