<?xml version="1.0" encoding="UTF-8"?>
<svg id="Layer_1" data-name="Layer 1" xmlns="http://www.w3.org/2000/svg" viewBox="0 0 122.15 125.68">
  <defs>
    <style>
      .cls-1 {
        fill: #2775ba;
      }
    </style>
  </defs>
  <g>
    <path class="cls-1" d="m63.11,18.84c11.27.21,20.35,3.21,28.39,9.26,8.31,6.25,13.78,14.45,16.56,24.43,1.42,5.11,2,10.36,1.45,15.68-.86,8.32-3.69,15.88-8.58,22.71-5.18,7.23-12.02,12.29-20.21,15.55-5.83,2.32-11.95,3.34-18.23,3.03-11.56-.58-21.45-5.07-29.78-13.04-3.52-3.37-6.34-7.26-8.6-11.57-.38-.72-.98-1.39-1.63-1.88-5.54-4.18-8.74-9.69-9.34-16.59-.71-8.31,2.68-14.82,9.05-19.97.53-.43.99-1.03,1.26-1.65,1.53-3.51,3.69-6.61,6.09-9.56,3.2-3.93,6.95-7.24,11.31-9.8,4.77-2.8,9.86-4.81,15.34-5.7,2.69-.44,5.41-.69,6.91-.88ZM26.47,85.33c6.62,13.39,25.35,26.64,48.15,21.23,22.71-5.39,38.03-28.79,32.37-52.67-4.84-20.41-26.06-37.32-51.17-32.38-11.31,2.23-20.32,8.42-27.09,17.77-1.04,1.44-2.1,2.9-2.76,4.69,1.7-.35,2.77-1.11,3.68-2.46,3.54-5.23,8.1-9.35,13.77-12.22,7.32-3.7,15.01-5.32,23.18-4.3,7.31.91,13.82,3.76,19.64,8.23,4.26,3.27,7.48,7.43,10.11,12.06,2.51,4.41,3.91,9.18,4.58,14.21.52,3.87.48,7.72-.26,11.55-1.17,6.05-3.51,11.58-7.2,16.54-3.71,4.99-8.27,9-13.8,11.79-5.48,2.76-11.34,4.19-17.53,4.32-5.94.13-11.54-1.18-16.9-3.55-6.23-2.76-11.2-7.14-15.23-12.59-.7-.95-1.48-1.62-2.61-1.91-.28-.07-.55-.18-.94-.32Zm1.24-1.65c-.19-.5-.3-.81-.43-1.11-.7-1.63-1.49-3.23-2.09-4.89-.64-1.79-1.12-3.64-1.64-5.48-.14-.51-.14-1.02.55-1.19.66-.16.91.24,1.07.77.07.23.14.46.19.69,1.1,5.11,3.26,9.73,6.37,13.92,4.28,5.76,9.82,9.92,16.43,12.68,4.83,2.02,9.89,2.67,15.09,2.54,3.39-.09,6.72-.46,9.95-1.51,8.29-2.68,14.94-7.63,19.85-14.8,3.49-5.08,5.53-10.75,6.21-16.91.67-6.02.07-11.86-2.09-17.51-2.59-6.79-6.81-12.34-12.68-16.67-6.22-4.59-13.2-7.03-20.88-7.51-3.71-.23-7.37.23-10.95,1.2-6.54,1.77-12.3,4.91-17.16,9.72-3.64,3.6-6.55,7.68-8.35,12.45-1.02,2.71-1.63,5.58-2.38,8.39-.16.61-.35,1.15-1.06,1.17-.6.02-.87-.47-.84-1.37,0-.11,0-.21.02-.32.66-3.89,1.78-7.63,3.73-11.09.11-.2.15-.44.25-.76-5.44,2.16-10.89,7.86-11.97,15.88-1.13,8.34,2.66,17.03,12.81,21.73Z"/>
    <path class="cls-1" d="m64.71,109.69c-.74,0-1.48-.02-2.22-.06-11.35-.57-21.4-4.97-29.88-13.08-3.39-3.25-6.3-7.15-8.63-11.61-.35-.66-.92-1.33-1.59-1.83-5.65-4.27-8.81-9.88-9.39-16.7-.68-7.9,2.39-14.66,9.1-20.1.51-.42.96-1,1.22-1.6,1.33-3.06,3.28-6.11,6.12-9.6,3.27-4.03,7.09-7.34,11.35-9.84,5.02-2.95,10.2-4.87,15.39-5.72,1.96-.32,3.98-.55,5.45-.71.56-.06,1.06-.12,1.47-.17h.01s.01,0,.01,0c11.28.21,20.33,3.16,28.47,9.29,8.22,6.18,13.81,14.43,16.61,24.51,1.49,5.36,1.98,10.66,1.46,15.73-.87,8.36-3.76,16.02-8.61,22.78-5.01,6.99-11.83,12.24-20.27,15.6-5.17,2.06-10.56,3.09-16.07,3.09Zm-1.59-90.7c-.41.05-.9.11-1.46.17-1.47.16-3.48.39-5.43.71-5.15.84-10.3,2.76-15.29,5.69-4.23,2.48-8.02,5.77-11.27,9.77-2.82,3.47-4.75,6.5-6.07,9.53-.28.64-.76,1.26-1.31,1.71-6.64,5.37-9.66,12.04-9,19.84.58,6.73,3.7,12.27,9.28,16.48.7.53,1.3,1.23,1.67,1.93,2.32,4.43,5.2,8.31,8.57,11.54,8.42,8.06,18.41,12.43,29.69,13,6.24.31,12.35-.7,18.16-3.02,8.39-3.34,15.17-8.55,20.14-15.49,4.81-6.71,7.69-14.33,8.55-22.64.52-5.04.04-10.29-1.45-15.62-2.79-10.01-8.34-18.21-16.5-24.35-8.09-6.09-17.08-9.02-28.29-9.23Zm1.07,88.96c-8.33,0-15.1-2.41-19.78-4.82-7.94-4.09-14.52-10.55-18.07-17.73l-.16-.32.34.12c.14.05.26.09.37.13.21.07.38.14.56.18,1.06.27,1.89.88,2.69,1.97,4.26,5.75,9.36,9.97,15.17,12.54,5.67,2.51,11.18,3.68,16.84,3.54,6.2-.14,12.07-1.59,17.46-4.31,5.33-2.69,9.95-6.64,13.74-11.74,3.58-4.82,5.99-10.36,7.17-16.48.71-3.71.8-7.47.26-11.51-.72-5.39-2.21-10.02-4.56-14.15-2.91-5.11-6.2-9.04-10.07-12.01-5.94-4.56-12.52-7.33-19.56-8.2-7.9-.99-15.45.42-23.1,4.28-5.52,2.8-10.14,6.89-13.72,12.18-.97,1.43-2.1,2.18-3.78,2.53l-.26.05.09-.25c.67-1.81,1.74-3.29,2.78-4.73,6.99-9.66,16.13-15.66,27.18-17.83,11.73-2.31,23.55.07,33.3,6.7,9.04,6.16,15.62,15.55,18.05,25.79,2.72,11.47.75,23.32-5.56,33.38-6.21,9.91-15.77,16.82-26.92,19.47-3.71.88-7.21,1.25-10.47,1.25Zm-37.42-22.36c7.12,13.97,26.17,25.95,47.82,20.82,23.34-5.54,37.81-29.08,32.25-52.49-4.61-19.44-25.42-37.3-50.99-32.26-10.97,2.16-20.05,8.12-26.99,17.71-.98,1.35-1.98,2.74-2.64,4.4,1.47-.35,2.44-1.04,3.32-2.34,3.61-5.33,8.26-9.46,13.83-12.27,7.6-3.84,15.43-5.29,23.27-4.31,7.09.89,13.72,3.67,19.71,8.26,3.9,3,7.22,6.96,10.15,12.1,2.37,4.17,3.88,8.83,4.6,14.26.54,4.07.46,7.86-.26,11.6-1.19,6.17-3.62,11.75-7.23,16.61-3.82,5.14-8.48,9.12-13.85,11.83-5.43,2.74-11.35,4.2-17.59,4.34-5.69.12-11.26-1.04-16.97-3.56-5.86-2.59-11-6.84-15.29-12.64-.76-1.03-1.54-1.6-2.53-1.86-.19-.05-.38-.12-.59-.19,0,0-.01,0-.02,0Zm35.21,16.17c-5.21,0-9.75-.84-13.87-2.57-6.77-2.83-12.31-7.11-16.49-12.73-3.17-4.27-5.33-8.97-6.4-13.97-.05-.24-.12-.48-.18-.68-.19-.6-.43-.78-.89-.67-.22.05-.36.14-.44.28-.09.16-.09.4,0,.73.11.38.21.76.32,1.15.4,1.43.81,2.91,1.31,4.32.41,1.13.91,2.25,1.4,3.34.23.51.46,1.03.69,1.55.08.2.16.4.26.66l.31.8-.34-.16c-9.34-4.33-14.16-12.51-12.89-21.89,1.18-8.75,7.24-14.08,12.07-16l.29-.12-.1.3c-.03.11-.06.21-.08.3-.05.19-.09.35-.17.49-1.78,3.15-2.99,6.77-3.71,11.04-.01.07-.01.15-.01.22v.08c-.02.52.06.88.25,1.06.11.11.25.15.43.15.6-.02.75-.43.92-1.06.2-.75.39-1.5.58-2.25.52-2.04,1.05-4.15,1.81-6.15,1.71-4.53,4.45-8.62,8.39-12.5,4.77-4.72,10.41-7.91,17.23-9.75,3.76-1.02,7.45-1.42,10.99-1.2,7.79.49,14.84,3.02,20.96,7.54,5.86,4.33,10.15,9.96,12.73,16.74,2.08,5.45,2.79,11.37,2.1,17.58-.69,6.24-2.79,11.96-6.24,16.98-4.92,7.17-11.63,12.16-19.93,14.85-2.89.93-6.06,1.42-9.99,1.52-.43.01-.86.02-1.28.02Zm-37.6-30.95c.57,0,.8.47.94.91.06.21.14.45.19.7,1.06,4.96,3.2,9.62,6.35,13.86,4.14,5.57,9.65,9.82,16.36,12.63,4.41,1.85,9.33,2.68,15.03,2.53,3.9-.1,7.05-.58,9.91-1.5,8.24-2.67,14.89-7.63,19.78-14.74,3.42-4.98,5.5-10.65,6.19-16.84.69-6.25,0-11.96-2.08-17.44-2.56-6.73-6.81-12.31-12.63-16.6-6.07-4.48-13.07-7-20.8-7.48-3.5-.22-7.17.18-10.9,1.19-6.77,1.83-12.36,5-17.1,9.68-3.9,3.85-6.62,7.91-8.32,12.4-.75,1.98-1.28,4.08-1.8,6.12-.19.75-.38,1.51-.58,2.26-.14.53-.34,1.26-1.21,1.28-.27.01-.49-.07-.65-.24-.24-.25-.36-.68-.34-1.28v-.07c0-.09,0-.18.02-.27.73-4.31,1.95-7.96,3.75-11.14.06-.11.1-.25.15-.42,0,0,0,0,0-.01-4.7,1.98-10.45,7.2-11.6,15.64-1.23,9.12,3.39,17.1,12.39,21.42l-.04-.11c-.1-.25-.17-.45-.25-.65-.22-.52-.45-1.03-.69-1.54-.49-1.09-1-2.21-1.41-3.36-.51-1.42-.92-2.91-1.32-4.34-.11-.38-.21-.76-.32-1.14-.12-.41-.11-.73.03-.96.12-.2.33-.34.63-.42.12-.03.22-.04.31-.04Z"/>
  </g>
  <g>
    <path class="cls-1" d="m96.4,64.39c-.13,19.11-15.84,35.71-36.35,35.1-19.22-.57-34.59-16.33-34.24-36.35.33-18.75,15.9-34.25,35.24-34.25,20.16,0,35.29,16.22,35.34,35.49Zm-68.88-.05c-.12,18.21,15.46,33.64,33.99,33.43,17.97-.21,32.96-15.02,33.17-33.56.21-18.91-16.16-34.54-35.56-33.57-16.35.82-31.65,14.75-31.59,33.69Z"/>
    <path class="cls-1" d="m61.14,99.66c-.36,0-.73,0-1.09-.02-19.63-.58-34.73-16.62-34.38-36.5.34-18.97,16.21-34.39,35.37-34.39h.01c9.68,0,18.67,3.76,25.32,10.57,6.53,6.69,10.15,15.6,10.17,25.07h0c-.06,9.51-4.05,18.77-10.95,25.42-6.61,6.37-15.26,9.85-24.46,9.85Zm-.1-70.61c-19.01,0-34.74,15.29-35.07,34.1-.35,19.72,14.62,35.61,34.09,36.19,9.51.29,18.52-3.18,25.33-9.75,6.84-6.59,10.79-15.78,10.86-25.21h0c-.06-19.81-15.51-35.33-35.19-35.34h-.01Zm.1,68.88c-8.79,0-17.47-3.62-23.85-9.97-6.46-6.43-9.98-14.82-9.93-23.61-.03-8.94,3.41-17.38,9.69-23.75,5.92-6.01,13.95-9.69,22.05-10.1,9.36-.47,18.64,3.01,25.43,9.54,6.64,6.38,10.39,15.19,10.29,24.18-.2,18.38-15.15,33.5-33.32,33.71-.12,0-.25,0-.37,0Zm-.35-67.17c-.56,0-1.11.01-1.67.04-15.17.76-31.51,13.8-31.45,33.54h0c-.06,8.72,3.43,17.03,9.84,23.4,6.32,6.29,14.92,9.88,23.63,9.88.12,0,.24,0,.36,0,18.01-.21,32.82-15.19,33.02-33.41.1-8.9-3.62-17.63-10.2-23.96-6.33-6.09-14.83-9.5-23.54-9.5Z"/>
  </g>
  <g>
    <path class="cls-1" d="m75.62,64.16c-.52-1.47-.99-2.8-1.53-4.34,3.02,2.27,6.16,3.86,9.69,5.28-3.53,1.45-6.85,2.77-9.75,5,.5-1.37,1-2.75,1.54-4.23-.41-.03-.79-.09-1.17-.09-7.19-.08-14.39-.15-21.58-.23-.24,0-.52.07-.71-.03-.33-.18-.81-.45-.84-.72-.05-.5.31-.83.93-.82,2.02.03,4.04,0,6.05.03,4.78.06,9.56.13,14.33.19.72.01,1.43.05,2.15.06.28,0,.56-.05.88-.09Z"/>
    <path class="cls-1" d="m73.71,70.53l1.65-4.53-.19-.02c-.27-.03-.52-.05-.77-.05-5.75-.06-11.51-.12-17.27-.18l-4.32-.05c-.05,0-.14,0-.21.01-.2.02-.4.03-.57-.06-.37-.21-.88-.49-.91-.84-.02-.27.05-.5.21-.67.19-.21.49-.31.87-.31,1.06.02,2.12.02,3.18.01.95,0,1.92,0,2.88.01,4.34.05,8.69.11,13.03.18l1.3.02c.34,0,.67.02,1.01.03.38.01.76.03,1.14.03.18,0,.37-.02.56-.05.04,0,.07-.01.11-.02l-1.63-4.63.4.3c2.75,2.06,5.73,3.69,9.65,5.26l.34.14-.83.34c-3.33,1.37-6.48,2.66-9.23,4.78l-.41.32Zm-20.9-5.14h.02l4.32.05c5.75.06,11.51.12,17.27.18.26,0,.52.03.79.06.12.01.25.03.38.04l.2.02-1.44,3.94c2.68-1.96,5.7-3.21,8.89-4.52l.14-.06c-3.6-1.46-6.4-2.98-8.99-4.87l1.43,4.06-.19.02c-.1.01-.2.02-.29.04-.21.03-.41.04-.61.05-.38,0-.76-.02-1.15-.03-.33-.01-.67-.02-1-.03l-1.3-.02c-4.34-.06-8.69-.13-13.03-.18-.96-.01-1.92-.01-2.87-.01-1.06,0-2.12,0-3.18-.01-.28,0-.51.07-.64.22-.1.11-.15.26-.13.44.02.19.52.47.76.6.09.05.25.04.4.02.08,0,.15-.01.22-.01Z"/>
  </g>
  <g>
    <path class="cls-1" d="m70.7,41.78c3.17,1.79,6.63,2.65,10.26,3.61-3.21,1.88-6.26,3.7-8.8,6.36.3-1.41.6-2.82.94-4.44-1.32.4-2.49.69-3.62,1.1-6,2.18-11.34,5.48-16.16,9.66-.24.21-.47.43-.72.63-.36.29-.76.6-1.16.09-.38-.48-.51-.92.09-1.42,6.09-5.14,12.77-9.19,20.54-11.25.67-.18.81-.44.44-1.05-.64-1.08-1.22-2.19-1.82-3.29Z"/>
    <path class="cls-1" d="m51.92,59.21s-.05,0-.07,0c-.19-.02-.36-.13-.51-.32-.34-.43-.64-1,.11-1.63,6.76-5.7,13.5-9.39,20.6-11.28.3-.08.46-.17.51-.28.04-.11,0-.29-.16-.55-.46-.77-.89-1.56-1.3-2.33-.17-.32-.35-.64-.52-.96l-.25-.46.46.26c2.97,1.68,6.19,2.53,9.61,3.43l.97.26-.31.18c-2.88,1.68-6.14,3.59-8.76,6.33l-.36.38,1-4.71c-.35.1-.69.2-1.01.29-.82.24-1.6.46-2.35.73-5.71,2.07-11.13,5.31-16.11,9.63-.09.08-.18.16-.27.25-.15.13-.29.27-.45.39-.23.19-.5.4-.79.4Zm19.16-17.06c.09.17.19.34.28.51.42.77.84,1.56,1.3,2.32.21.35.27.6.18.81-.11.27-.44.39-.71.46-7.06,1.88-13.76,5.55-20.48,11.22-.52.43-.41.77-.07,1.21.1.13.21.2.31.21.19.02.42-.16.64-.33.15-.12.29-.25.43-.38.09-.08.18-.17.28-.25,5.01-4.34,10.46-7.6,16.2-9.68.76-.28,1.54-.5,2.37-.74.4-.12.82-.24,1.25-.37l.24-.07-.89,4.18c2.49-2.48,5.47-4.26,8.16-5.83l-.27-.07c-3.26-.86-6.35-1.68-9.22-3.21Z"/>
  </g>
  <g>
    <path class="cls-1" d="m70.87,88.18c.7-1.29,1.41-2.57,2.14-3.92-.22-.11-.36-.21-.52-.26-7.68-2.11-14.42-5.94-20.41-11.14-.12-.1-.3-.2-.33-.33-.07-.33-.07-.68-.1-1.03.34.02.76-.09.99.07.85.59,1.64,1.26,2.44,1.91,5.1,4.18,10.73,7.37,17.12,9.14.29.08.6.11,1.12.2-.32-1.57-.6-2.97-.89-4.38,2.5,2.52,5.44,4.42,8.4,6.33-3.54.53-6.81,1.71-9.84,3.56-.04-.05-.09-.11-.13-.16Z"/>
    <path class="cls-1" d="m70.97,88.53l-.27-.34.05-.09,2.07-3.78s-.04-.02-.07-.04c-.11-.06-.2-.11-.29-.14-7.37-2.02-14.26-5.78-20.47-11.17-.03-.02-.06-.05-.09-.07-.12-.09-.25-.19-.28-.34-.05-.25-.07-.51-.08-.76,0-.1-.01-.19-.02-.29v-.17s.16,0,.16,0c.1,0,.21,0,.32,0,.27-.02.55-.03.75.11.73.51,1.43,1.08,2.1,1.64l.34.28c5.45,4.46,11.03,7.44,17.07,9.11.18.05.37.08.63.12.08.01.17.03.26.04l-.95-4.66.35.36c2.5,2.52,5.49,4.44,8.38,6.31l.33.22-.39.06c-3.55.53-6.75,1.69-9.78,3.54l-.11.07Zm-19.16-16.88s0,.09,0,.13c.01.25.03.48.07.71,0,.04.11.12.17.16.04.03.08.06.11.09,6.18,5.36,13.03,9.1,20.36,11.11.12.03.23.09.36.17.06.03.12.07.19.1l.14.07-2.14,3.92c2.92-1.75,5.98-2.87,9.35-3.42-2.67-1.72-5.4-3.51-7.75-5.79l.83,4.11-.22-.04c-.18-.03-.33-.05-.47-.08-.26-.04-.46-.07-.66-.13-6.08-1.68-11.69-4.68-17.18-9.17l-.35-.28c-.67-.55-1.36-1.12-2.09-1.62-.12-.08-.34-.07-.56-.05-.06,0-.12,0-.18,0Z"/>
  </g>
</svg>