<?xml version="1.0" encoding="UTF-8"?>
<svg id="Layer_1" data-name="Layer 1" xmlns="http://www.w3.org/2000/svg" viewBox="0 0 122.15 125.68">
  <defs>
    <style>
      .cls-1 {
        fill: #2775ba;
      }
    </style>
  </defs>
  <path class="cls-1" d="m73.28,95.57c-.85-.3-1.82-.52-2.68-.97-7.83-4.2-15.63-8.46-23.47-12.65-4.06-2.17-8.2-4.2-12.26-6.37-2.61-1.39-5.21-2.83-7.7-4.43-.91-.58-1.64-1.6-2.17-2.58-4.66-8.6-9.26-17.24-13.88-25.87-.78-1.45-1.6-2.88-2.33-4.35-1.4-2.82-.8-4.51,2.08-5.65,11.39-4.54,22.78-9.07,34.19-13.56,3.29-1.29,4.35-.88,6.01,2.17,5.29,9.76,10.59,19.51,15.79,29.32.86,1.63,1.98,2.76,3.55,3.6,8,4.24,15.99,8.49,23.98,12.75,5.01,2.68,9.99,5.4,14.99,8.09,1.13.61,2.07,1.29,2.15,2.75.11,1.87-.46,2.89-2.5,3.76-3.48,1.48-6.99,2.92-10.51,4.31-7.5,2.97-15.01,5.91-22.52,8.85-.84.33-1.72.53-2.74.84Zm-20.03-34.33c.89.62,1.5,1.12,2.17,1.51,1.71.99,3.51,1.84,5.15,2.92,3.48,2.29,4.24,6.05,1.99,9.17-1.88,2.6-5.18,3.49-8.13,1.93-4.66-2.46-9.41-4.82-13.77-7.74-3.11-2.08-5.74-1.82-8.64-.16-.44.25-.77.67-1.25,1.1.47.33.72.54,1,.69,12.99,6.95,25.99,13.88,38.96,20.88,1.77.96,3.32.95,5.14.22,10.38-4.17,20.8-8.27,31.2-12.4.56-.22,1.07-.59,2.01-1.11-1.22-.79-2.05-1.41-2.95-1.9-3.11-1.68-6.26-3.31-9.38-4.98-8.85-4.73-17.72-9.44-26.54-14.24-1.82-.99-3.5-1.11-5.41-.37-3.3,1.28-6.66,2.41-9.98,3.62-.43.16-.81.44-1.57.86Zm-5.27-39.98c-1.31.37-2.43.6-3.49,1.02-10.64,4.2-21.27,8.42-31.9,12.65-1.75.69-1.85.97-1.07,2.76.16.38.35.74.55,1.1,4.21,7.82,8.43,15.63,12.65,23.45.7,1.3,1.4,2.61,2.13,3.9.43.75.99,1.38,1.99,1.01,2.14-.79,4.27-1.61,6.46-2.43-.09-.83-.18-1.47-.22-2.11-.3-4.45,1.12-8.3,4.36-11.35,6.02-5.68,15.68-4.75,20.71,1.89,1.49,1.96,1.58,1.99,3.86.89.35-.17.67-.41,1.23-.75-5.73-10.63-11.41-21.17-17.25-32.01Zm10.7,34.65c-.71-.92-1.07-1.46-1.5-1.94-3.08-3.47-8.2-4.66-12.38-2.88-4.7,2-7.43,6.47-6.98,11.35.13,1.41.66,2.41,2.01,3.11,2.77,1.44,5.44,3.06,8.16,4.58,2.44,1.36,4.87,2.73,7.34,4.03,1.1.58,2.29.91,3.54.29,2.56-1.26,2.84-4.54.43-6.21-1.82-1.26-3.78-2.32-5.68-3.46-1.55-.93-3.15-1.78-4.66-2.77-1.13-.75-1.12-1.62.03-2.29.91-.53,1.95-.85,2.94-1.23,2.12-.82,4.26-1.63,6.75-2.58Z"/>
  <path class="cls-1" d="m111.36,89.6c-1.33.51-2.17.81-2.99,1.15-10.2,4.19-20.4,8.39-30.6,12.57q-3.08,1.27-3.08,4.73c0,1.64.03,3.29-.1,4.93-.13,1.65-.25,1.67-2.37,1.42-.08-.53-.21-1.08-.22-1.64-.05-1.81-.16-3.62-.07-5.42.1-2.05-.66-3.25-2.56-4.24-14.29-7.48-28.52-15.08-42.77-22.62-.76-.4-1.59-.67-2.72-1.14-.07,1.77-.11,3.15-.19,4.53-.06.98-.09,1.99-.34,2.93-.11.42-.79,1.03-1.12.98-.53-.09-1.3-.58-1.39-1.03-.23-1.11-.31-2.31-.16-3.43.64-4.72-.87-8.76-3.24-12.8-3.75-6.38-7.09-12.99-10.61-19.5-.2-.36-.38-.73-.56-1.1-.38-.82-.5-1.61.5-2.09.85-.41,1.41,0,1.83.72.33.57.67,1.14.98,1.71,4.06,7.53,8.15,15.04,12.14,22.61,1.08,2.06,2.54,3.47,4.61,4.55,14.88,7.78,29.73,15.62,44.54,23.52,1.79.96,3.27.96,5.11.19,11.61-4.87,23.26-9.64,34.9-14.44.3-.13.61-.26.92-.35,1.85-.55,2.46-.18,2.51,1.74.08,2.88.05,5.76.03,8.63,0,.84-.11,1.72-1.27,1.74-1.2.02-1.5-.75-1.49-1.79.01-1.4,0-2.8-.03-4.19-.02-.79-.11-1.58-.21-2.86Z"/>
  <path class="cls-1" d="m76.95,21.84c2.92-.11,5.75-.21,8.86-.33v-8.7h12.69c.91,2.8.08,5.64.61,8.68,2.8.11,5.62.22,8.57.34v12.56c-2.79,1.01-5.66-.19-8.61.77-.05.9-.12,1.85-.14,2.8-.03,1.31-.02,2.63-.01,3.94,0,1.19-.51,1.89-1.75,1.89-3.69.01-7.38,0-11.4,0v-8.85c-3.06-.12-5.81-.24-8.82-.36v-12.73Zm18.9,10.2c3.03-.08,5.86-.16,8.86-.24.45-2.39.45-4.63,0-6.91-2.88-.86-5.85.32-8.71-.85-.1-2.72-.2-5.38-.3-8.15h-6.95c-.54,2.91.11,5.79-.44,8.62-3.04.13-5.82-.16-8.58.31v6.83c2.95.65,5.87-.2,8.92.66v8.49c2.54.24,4.78.46,7.2-.21v-8.55Z"/>
  <path class="cls-1" d="m40.08,45.98c-4.88,0-8.89-4.18-8.91-9.3-.02-4.94,4.08-8.87,9.27-8.89,4.86-.02,9.12,4.28,9.07,9.17-.06,5.1-4.16,9.03-9.43,9.02Zm.53-15.4c-3.75-.13-6.58,2.55-6.69,6.32-.09,3.25,2.66,6.17,5.95,6.31,3.78.15,6.72-2.52,6.82-6.21.09-3.43-2.63-6.3-6.08-6.42Z"/>
</svg>