<?xml version="1.0" encoding="UTF-8"?>
<svg id="Layer_1" data-name="Layer 1" xmlns="http://www.w3.org/2000/svg" viewBox="0 0 133.54 125.68">
  <defs>
    <style>
      .cls-1 {
        fill: #2775ba;
      }
    </style>
  </defs>
  <path class="cls-1" d="m68.69,104.08c-12.68,0-25.37,0-38.05.01-.54,0-.7-.16-.69-.69.34-16.71,8-28.8,22.95-36.23,1.69-.84,3.55-1.35,5.35-1.96.95-.32,1.92-.14,2.64.52,2.07,1.87,4.54,2.49,7.23,2.54,1.8.04,3.64.22,5.36-.44,1.14-.44,2.25-1.05,3.25-1.76,1.14-.8,2.26-1.05,3.57-.59,13.42,4.62,22.01,13.8,25.97,27.38,1,3.43,1.25,6.93,1.3,10.47,0,.59-.22.74-.76.74-12.71-.01-25.42,0-38.13,0h0Zm-1.02-3.2c.02-.23.05-.41.05-.58,0-9.4,0-18.81.02-28.21,0-.64-.26-.73-.81-.77-2.42-.18-4.78-.73-6.67-2.28-1.11-.91-2.05-.85-3.17-.33-.18.08-.41.11-.56.23-.21.16-.45.36-.53.6-.91,2.64-1.19,5.35-.71,8.11.05.27.36.59.63.71,3.24,1.44,4.86,5.54,4.6,8.31-.06.67-.73,1.23-1.43,1.26-.72.02-1.22-.33-1.44-1.01-.11-.33-.13-.7-.17-1.05-.15-1.42-.6-2.73-1.55-3.82-1.26-1.44-3.24-1.59-4.59-.24-.64.64-1.12,1.51-1.46,2.35-.31.76-.32,1.63-.47,2.46-.15.82-.77,1.33-1.54,1.28-.76-.05-1.35-.65-1.37-1.47-.09-2.8,1.35-6.88,5.16-8.23.41-.15.51-.34.51-.77-.04-1.55-.05-3.09,0-4.64.02-.66.23-1.31.36-2.01-10.46,4.83-19.2,17.24-19.34,30.11h34.49Zm36.73.05c-.15-5.37-1.57-10.34-4.02-15.03-3.16-6.05-7.82-10.67-13.67-14.36.21,1.53.41,2.91.58,4.28.42,3.5.5,7,.04,10.49-.09.71.09.96.69,1.25,2.82,1.36,3.82,4.87,2.2,7.53-1.17,1.91-3.5,2.95-5.63,2.5-2.16-.45-3.95-2.32-4.22-4.4-.32-2.45.73-4.66,2.87-5.62.94-.42.99-1.08,1.06-1.86.48-5.13.06-10.2-.91-15.24-.06-.31-.34-.7-.62-.83-1.11-.49-2.26-.91-3.41-1.3-.23-.08-.62.02-.83.18-2.07,1.58-4.38,2.54-6.98,2.8-.52.05-.76.19-.76.83.03,9.3.03,18.61,0,27.91,0,.74.19.87.87.87,10.85-.02,21.71-.01,32.72-.01Z"/>
  <path class="cls-1" d="m88.71,40.76c-.3,5.38-1.77,11.44-5.67,16.73-2.08,2.83-4.62,5.12-7.83,6.61-4.81,2.24-9.52,1.86-14.1-.65-3.78-2.06-6.5-5.19-8.48-8.94-3.26-6.17-4.49-12.75-3.51-19.68.48-3.38,1.64-6.55,3.78-9.27,2.61-3.33,6.2-5.04,10.22-5.87,4.67-.97,9.34-.75,13.92.69,5.04,1.59,8.3,5,10.2,9.84,1.09,2.78,1.56,5.83,1.48,10.54Zm-3.12-1.43c.06,0,.12-.01.19-.02-.23-1.91-.31-3.85-.72-5.72-1.29-5.85-4.76-9.68-10.77-10.84-3.1-.6-6.24-.63-9.41-.29-6.15.66-10.86,4.46-12.27,10.49-1.34,5.75-.9,11.46,1.17,17,1.6,4.29,4.03,8.01,7.99,10.46,3.68,2.28,7.63,2.81,11.73,1.16,4.1-1.65,6.84-4.74,8.87-8.53,2.28-4.28,3.3-8.87,3.22-13.72Z"/>
</svg>