<?xml version="1.0" encoding="UTF-8"?>
<svg id="Layer_1" data-name="Layer 1" xmlns="http://www.w3.org/2000/svg" viewBox="0 0 100.13 101.6">
  <defs>
    <style>
      .cls-1 {
        fill: #2775ba;
      }
    </style>
  </defs>
  <path class="cls-1" d="m37.45,52.05c.02-.23.04-.41.04-.59,0-1.42.01-2.84,0-4.26,0-.24-.07-.54-.22-.71-2.78-3.23-4.48-7.01-5.53-11.09-.34-1.33-.83-2.56-1.51-3.76-1.91-3.38-2.96-7.02-2.84-10.93.14-4.54,1.91-8.42,5.01-11.69,4.05-4.28,9-7.03,14.81-8.04,5.83-1.01,10.99.59,15.5,4.36,1.83,1.53,3.41,3.3,4.81,5.22.15.21.3.44.38.68,1.42,4.3,2.36,8.69,2.28,13.25-.04,2.09-.32,4.15-1.25,6.05-.43.88-1.07,1.65-1.6,2.49-.19.31-.42.62-.5.96-.97,4.16-2.5,8.06-5.1,11.49-.1.13-.19.29-.32.39-.88.74-1.07,1.69-.99,2.8.08,1.09.02,2.2.02,3.37.87,0,1.68,0,2.5,0,2.67-.01,5.3.35,7.85,1.13,5.3,1.63,9.71,4.51,12.76,9.23,1.78,2.75,2.69,5.77,2.69,9.06,0,8.8,0,17.61,0,26.41,0,1.17-.32,1.5-1.5,1.5-11.65,0-23.29,0-34.94,0-12.22,0-24.45,0-36.67,0-1.05,0-1.45-.4-1.45-1.46,0-8.86-.03-17.72,0-26.58.02-4.97,2.09-9.08,5.61-12.49,3.91-3.79,8.67-5.85,14.03-6.53,1.81-.23,3.65-.18,5.48-.26.2,0,.4,0,.65,0Zm41.37,8.21c-.02.2-.03.27-.03.34.15,3.87-.39,7.68-1.18,11.46-.1.47-.01.71.38,1.01,1.4,1.04,2.02,2.48,1.81,4.21-.21,1.69-1.12,2.93-2.68,3.6-1.75.75-3.43.51-4.86-.76-1.42-1.25-1.88-2.88-1.34-4.68.55-1.88,1.88-2.97,3.82-3.24.43-.06.6-.21.67-.62.17-1.01.39-2.02.55-3.03.48-3.18.84-6.37.4-9.6-.07-.53-.28-.87-.74-1.14-3.65-2.2-7.63-3.29-11.87-3.45-.55-.02-1.09,0-1.73,0,.16.23.24.37.34.51,1.46,1.99,2.91,3.99,4.39,5.96.47.62.52,1.18.15,1.86-.94,1.72-1.84,3.47-2.75,5.2-.5.95-.99,1.91-1.5,2.89.91.73,1.78,1.44,2.65,2.14.75.6.85.89.54,1.79-2.52,7.27-5.05,14.54-7.57,21.81-.06.18-.12.37-.19.59h25.89c0-.22.02-.4.02-.58,0-8.32,0-16.64,0-24.95,0-2.52-.63-4.88-1.84-7.08-.85-1.55-1.93-2.92-3.32-4.21Zm-42.91-5.84c-.08-.05-.11-.08-.14-.08-4.56-.09-8.87.84-12.86,3.12-.19.11-.37.38-.41.6-.23,1.34-.5,2.69-.6,4.04-.25,3.23.1,6.38,1.38,9.39.18.43.4.6.9.61,5.71.1,9.34,6.25,6.68,11.3-.16.3-.41.66-.7.75-.95.32-1.93.57-2.92.78-.64.14-1.19-.26-1.32-.84-.14-.58.19-1.14.82-1.34.53-.17,1.07-.33,1.62-.43.52-.09.74-.38.88-.86.77-2.63-.51-5.47-3-6.6-2.48-1.12-5.39-.26-6.86,2.02-1.48,2.32-1.01,5.36,1.09,7.16.28.24.53.29.87.18.52-.16,1.04-.3,1.57-.43.75-.19,1.34.12,1.51.76.18.65-.18,1.22-.91,1.43-.77.22-1.55.41-2.33.63-.49.14-.91.06-1.33-.22-2.49-1.67-3.75-4.01-3.59-6.98.17-3.02,1.71-5.23,4.43-6.6.18-.09.35-.17.55-.27-1.83-4.16-2-8.46-1.41-12.86-.14.04-.17.05-.2.07-.06.04-.12.09-.17.14-3.55,3.2-5.57,7.09-5.56,11.96.02,8.23,0,16.45,0,24.68,0,.18.02.36.04.52h25.94c-.09-.28-.16-.49-.24-.7-2.5-7.22-5.01-14.44-7.51-21.66-.31-.91-.22-1.2.51-1.79.89-.71,1.77-1.42,2.66-2.14-.1-.2-.16-.35-.24-.49-1.32-2.51-2.63-5.03-3.98-7.53-.38-.7-.36-1.26.13-1.9,1.49-1.97,2.93-3.97,4.39-5.96.1-.14.2-.29.3-.45Zm27.82-32.35s-.09.01-.14.02c0,1.19,0,2.37,0,3.56,0,1.23-.39,1.61-1.6,1.61-1.53,0-3.06,0-4.6,0-.35,0-.52.11-.65.44-1.34,3.21-4.26,5.19-7.63,5.19-3.37,0-6.32-1.98-7.64-5.18-.15-.36-.33-.46-.7-.46-1.53.02-3.06.01-4.6,0-1.11,0-1.49-.38-1.5-1.48,0-.61,0-1.22,0-1.83-.41-.04-.72-.09-.76.4-.2,2.4-.56,4.8-.57,7.19-.01,2.27.82,4.43,1.63,6.55,1.28,3.34,3.08,6.36,5.83,8.72,2.81,2.41,6.05,3.6,9.78,3.13,3.45-.43,6.19-2.19,8.46-4.75,2.62-2.96,4.2-6.47,5.21-10.25.24-.88.5-1.78.54-2.68.1-2.66-.1-5.3-.56-7.93-.13-.76-.32-1.51-.49-2.26Zm3.37,7.06c.12-.31.23-.51.26-.72.2-1.31.52-2.61.55-3.93.12-4.2-.8-8.24-2.08-12.2-.06-.17-.15-.34-.26-.49-1.45-1.96-3.08-3.75-5.03-5.24-3.66-2.79-7.75-4.08-12.34-3.4-5.37.79-9.96,3.22-13.78,7.04-3.72,3.71-5.39,8.18-4.62,13.46.23,1.55.64,3.05,1.31,4.64.05-.35.08-.55.11-.75.2-1.48.4-2.96.62-4.44.14-.95.44-1.21,1.38-1.3.46-.04.91-.09,1.41-.14,0-1.32-.02-2.57,0-3.82.07-3.83,3.21-7.09,7.03-7.14,4.97-.07,9.94-.08,14.91,0,2.88.05,5.01,1.55,6.27,4.12.49,1,1,1.99,1.56,2.95,1.25,2.15,1.81,4.53,2.18,6.96.21,1.41.34,2.84.52,4.39Zm-6.81,26.69c-3.31,13.84-6.58,27.52-9.85,41.21.11.04.16.07.21.07,1.55,0,3.1.02,4.65,0,.15,0,.38-.21.44-.37.31-.78.57-1.58.84-2.38,2.25-6.5,4.5-12.99,6.76-19.48.14-.4.06-.6-.25-.84-.77-.59-1.51-1.22-2.27-1.82-.89-.72-.97-1.1-.44-2.11,1.38-2.61,2.75-5.22,4.11-7.84.09-.17.12-.5.02-.64-1.36-1.9-2.74-3.78-4.22-5.8Zm-22.56.1c-.15.18-.22.24-.27.31-1.28,1.75-2.55,3.51-3.84,5.24-.25.34-.26.58-.06.95,1.4,2.62,2.77,5.25,4.15,7.88.44.83.35,1.25-.38,1.85-.77.63-1.53,1.26-2.32,1.86-.38.29-.49.54-.31,1.02.47,1.2.86,2.43,1.28,3.65,2.06,5.95,4.12,11.89,6.16,17.85.16.47.38.62.88.61,1.31-.04,2.62-.01,3.92-.01.19,0,.39-.03.62-.04-3.28-13.73-6.55-27.39-9.83-41.15Zm19.55,2.75s-.05-.03-.08-.04c-.09.11-.18.21-.26.33-.47.72-.94,1.44-1.42,2.15-1.84,2.81-3.68,5.63-5.53,8.43-.54.81-1.41.82-1.98.04-.07-.09-.12-.19-.19-.28-2.22-3.41-4.45-6.82-6.67-10.23-.12-.18-.25-.36-.37-.54l-.1.06c2.75,11.48,5.5,22.96,8.24,34.45h.14c2.74-11.46,5.48-22.92,8.21-34.37Zm-16.44-33.73c-.01-2.24.67-4.21,2.18-5.85,1.51-1.64,3.4-2.54,5.62-2.67,1.87-.11,3.6.37,5.13,1.45,2.44,1.72,3.57,4.13,3.6,7.06h3.9c.02-.11.03-.16.03-.22,0-2.22.02-4.45,0-6.67-.03-2.94-2.24-5.11-5.19-5.12-4.67,0-9.34,0-14.01,0-3.01,0-5.18,2.19-5.2,5.21,0,2.07,0,4.15,0,6.22,0,.18.02.36.02.58h3.92Zm8.17,41.99c.16-.23.27-.39.38-.56,2.42-3.71,4.77-7.46,7.29-11.09,1.11-1.6,1.76-3.19,1.5-5.12-.04-.31,0-.64,0-1.03-6.23,4.3-12.31,4.18-18.42-.19,0,1.12-.03,2.16.02,3.19.02.4.13.85.35,1.19,2.47,3.83,4.97,7.64,7.47,11.45.46.7.92,1.4,1.42,2.17Zm6.05-42.26c0-3.3-2.65-5.98-5.92-5.99-3.28,0-5.97,2.66-5.98,5.94-.02,3.29,2.65,5.99,5.92,5.99,3.29,0,5.98-2.67,5.98-5.94Zm22.52,52.09c.04-1.27-.98-2.34-2.25-2.37-1.24-.03-2.3.98-2.34,2.23-.04,1.25.95,2.32,2.2,2.37,1.29.05,2.36-.95,2.4-2.22Z"/>
</svg>