<?xml version="1.0" encoding="UTF-8"?>
<svg id="Layer_1" data-name="Layer 1" xmlns="http://www.w3.org/2000/svg" viewBox="0 0 113.99 110.06">
  <defs>
    <style>
      .cls-1 {
        fill: #2775ba;
      }
    </style>
  </defs>
  <path class="cls-1" d="m70.58,102.48v-1.29c0-4.97.06-9.95-.01-14.92-.1-7.04-3.13-12.49-9.11-16.26-.26-.16-.51-.35-1-.69.43-.31.82-.49,1.05-.78,1.19-1.56,2.39-3.12,3.46-4.76.61-.92.14-1.87-.86-1.83-2.11.08-3.21-1.22-3.78-2.89-.63-1.88-1.16-3.86-1.29-5.82-.23-3.53-.16-7.07-.16-10.61-.01-7.13-2.98-12.68-8.87-16.66-.51-.34-.71-.68-.71-1.29.03-2.61.02-5.22.01-7.84,0-1.62-.52-2.38-1.99-2.93-5.42-2.02-10.83-2.01-16.25-.02-1.54.56-2.06,1.35-2.07,3,0,2.82.02,5.65-.02,8.48,0,.39-.2.93-.49,1.16-5.43,4.12-8.07,9.56-8,16.38.02,2.02-.16,4.06-.46,6.06-.61,4.06-.95,8.13-.06,12.16.49,2.26,1.44,4.42,2.2,6.66-.12.04-.46.15-.8.25-7.39,2.13-12.76,8.33-13.45,15.97-.35,3.84-.15,7.72-.18,11.58-.02,2.25,0,4.5,0,6.82-.09.01-.18.02-.26.03v2.26c.08,0,.16,0,.25,0,21.04,0,42.07,0,63.11,0v-2.21h-.24ZM32.1,15.93c4.65-1.65,9.3-1.69,13.97-.05.72.25.98.6.96,1.38-.04,3.32-.02,6.64-.02,10.06-5.76-1.82-8.96-2.07-15.63,0-.03-.24-.08-.47-.08-.7,0-3.18.02-6.36-.02-9.54,0-.65.21-.93.82-1.15Zm-10.38,40.89c-.02-2.56.39-5.12.57-7.68.17-2.38.35-4.77.42-7.16.14-5.2,2.18-9.46,6.09-12.87.93,1.34,1.01,1.36,2.52.72,5.19-2.2,10.39-2.37,15.6-.06,1.84.82,2.19.63,2.52-1.52,3.56,2.63,6.02,5.92,6.72,10.14.49,2.97.34,6.04.48,9.08.14,2.74.13,5.5.47,8.23.43,3.45,1.48,6.66,5.27,8.44-1.32,1.41-2.52,2.71-3.76,3.96-.18.18-.63.26-.88.17-3.15-1.11-6.41-.98-9.66-.93-.8.01-1.25-.26-1.58-.96-.81-1.71-1.07-3.48-.79-5.32.05-.34.32-.71.6-.94,4.45-3.72,6.43-8.64,6.9-14.27.25-3.01-.03-5.99-.88-8.91-.29-.99-.81-1.35-1.73-.98-4.65,1.86-9.31,1.39-13.98.06-.89-.25-1.77-.56-2.65-.85-.75-.25-1.35-.14-1.65.68-.97,2.7-3.13,3.79-5.76,4.12-1.09.14-1.43.62-1.52,1.65-.34,4.45.3,8.69,2.31,12.7,1.1,2.21,2.59,4.09,4.47,5.7.4.34.69.98.76,1.51.22,1.81,0,3.59-1.02,5.15-.19.29-.65.56-.99.58-1.64.06-3.29.08-4.93,0-.38-.01-.86-.32-1.09-.63-2.15-2.92-2.82-6.33-2.84-9.83Zm11.13,12.3c0-.1.04-.22.09-.29,1.52-2.02,2.11-4.33,2.06-6.9,2.78.95,5.47.98,8.04.07.39,1.61.44,3.37,1.21,4.71,1.95,3.4,1.12,6.96.93,10.44-.14,2.66-3.06,4.86-5.81,4.96-2.96.1-5.8-1.78-6.23-4.66-.4-2.73-.22-5.55-.29-8.33Zm-1.3-12.51c-3.35-3.99-4.45-8.71-4.26-13.8.01-.26.39-.68.66-.74,2.5-.6,4.57-1.78,5.94-4.06.12-.21.81-.22,1.16-.11,3.51,1.13,7.08,1.75,10.77,1.44,1.48-.12,2.95-.46,4.57-.73.75,2.72.88,5.47.47,8.26-.54,3.71-1.77,7.14-4.32,9.97-4.39,4.89-10.75,4.8-14.98-.24Zm36.72,44.63v1.15h-9.34c-.02-.37-.05-.75-.05-1.13,0-2.86,0-5.73,0-8.59,0-.82-.13-1.58-1.16-1.54-.94.04-1.07.75-1.07,1.54.01,3.22,0,6.43,0,9.73H21.63v-9.88c0-.76-.23-1.39-1.11-1.39-.9,0-1.09.62-1.09,1.39,0,2.9,0,5.79,0,8.69v1.22h-9.36c-.02-.37-.05-.68-.05-.99,0-5.12-.02-10.24,0-15.35.04-9.28,7.27-16.51,16.55-16.56,1.32,0,2.63,0,4.07,0,0,2.26,0,4.29,0,6.33.02,4.79,3.78,8.56,8.49,8.54,4.77-.02,8.45-3.73,8.47-8.55.01-2.03,0-4.06,0-6.09,8.13-1.08,15.94,1.65,19.56,10.28.81,1.94,1.12,3.98,1.11,6.08-.02,5.05-.01,10.09-.01,15.14Z"/>
  <path class="cls-1" d="m82.62,49.49c0,.47.04.79,0,1.1-.11.77.15,1.16.93,1.49,2.17.92,3.23,3.24,2.7,5.6-.47,2.11-2.43,3.68-4.67,3.73-2.26.06-4.22-1.42-4.84-3.65-.6-2.16.39-4.49,2.38-5.58,1.37-.75,1.4-.82,1.06-2.71-.36,0-.74,0-1.12,0-3.22,0-6.44.02-9.66,0-4.51-.03-8.01-3.54-8.02-8.05-.02-7.98,0-15.95,0-23.93,0-.61-.24-.91-.68-1.36-1.04-1.08-2.16-1.52-3.64-1.61-1.11-.07-1.89-1.36-1.91-2.54-.02-1.22.74-2.32,1.92-2.68.4-.12.85-.2,1.27-.17.74.05,1.24-.13,1.67-.82.24-.39.86-.58,1.34-.76.28-.11.64-.05.96-.05,12.77,0,25.54,0,38.31-.01,1.19,0,2.13.22,2.79,1.38.18.33,1.05.34,1.61.37,1.5.07,2.61.96,2.79,2.31.23,1.75-.9,3.09-2.7,3.1-.92,0-1.79-.06-2.16,1.03-.01.03-.04.07-.07.08-1.6.55-1.26,1.9-1.26,3.1,0,7.33-.11,14.67.03,22,.1,5.07-3.92,8.89-8.69,8.65-3.38-.18-6.78-.03-10.33-.03Zm16.75-32.9c-.26-.05-.4-.09-.54-.09-11.48,0-22.97,0-34.45-.02-.72,0-.8.34-.8.93.01,7.94-.02,15.89.02,23.83.02,3.59,2.57,6.04,6.13,6.05,7.8,0,15.6,0,23.4,0,3.77,0,6.24-2.47,6.25-6.25,0-7.77,0-15.53,0-23.3v-1.15Zm1.85-6.83h-39.48v4.39h39.48v-4.39Zm-17.11,46.76c.01-1.45-1.21-2.69-2.65-2.69-1.38,0-2.59,1.19-2.64,2.6-.05,1.46,1.14,2.69,2.6,2.71,1.48.02,2.67-1.15,2.69-2.62Zm19.54-43.82c.68-.23,1.29-.44,1.9-.65-.32-.19-.62-.5-.96-.55-.57-.08-1.34-.2-.94,1.2Zm-44.42-1.45c-.6.22-1.19.44-1.78.67.38.17.74.43,1.13.5.67.12,1.03-.14.65-1.16Z"/>
  <path class="cls-1" d="m40.28,21.54c0,.87.01,1.62,0,2.36-.02.73-.32,1.27-1.12,1.29-.82.02-1.11-.54-1.15-1.26-.03-.74,0-1.49,0-2.39-.78,0-1.48-.02-2.18,0-.78.03-1.4-.23-1.44-1.07-.04-.95.65-1.16,1.45-1.15.67,0,1.34,0,2.16,0,0-.84-.02-1.58,0-2.31.02-.71.25-1.3,1.08-1.32.87-.02,1.18.54,1.19,1.32,0,.71,0,1.42,0,2.31.85,0,1.62,0,2.39,0,.74.01,1.31.33,1.27,1.13-.04.74-.57,1.1-1.33,1.09-.71-.01-1.42,0-2.33,0Z"/>
  <path class="cls-1" d="m82,32.1c.07-.26.2-.52.21-.78.03-.73.01-1.45.01-2.18,0-.78.34-1.28,1.16-1.26.76.02,1.06.53,1.06,1.24,0,.91.02,1.81.04,2.72,0,.06.07.12.25.37.16-.32.36-.54.37-.76.04-.76.01-1.53.02-2.29.01-.76.34-1.28,1.16-1.28.78,0,1.07.52,1.08,1.22.01,1.34.02,2.69,0,4.03,0,.84-.46,1.26-1.31,1.26-1.78,0-3.56,0-5.34,0-.89,0-1.37-.43-1.39-1.31-.02-1.31-.02-2.62,0-3.92,0-.75.35-1.29,1.16-1.27.81.02,1.11.58,1.12,1.32,0,.94,0,1.87,0,2.81.13.03.26.05.4.08Z"/>
  <path class="cls-1" d="m91.28,43.29c-.4.51-.65,1.08-1.09,1.32-.68.38-1.46-.16-1.48-1.05-.06-2.1-.04-4.21,0-6.32.01-.71.44-1.12,1.21-1.1.76.02,1.52,0,2.29.02,1.46.03,2.55.78,2.91,2.01.42,1.38-.07,2.57-1.39,3.44-.09.06-.18.12-.35.24.26.23.62.39.69.64.15.5.37,1.21.14,1.52-.23.3-1.03.4-1.48.26-.56-.17-1.02-.67-1.45-.97Zm-.24-3.51c.66-.15,1.23-.25,1.78-.43.06-.02.05-.62-.02-.64-.55-.17-1.12-.27-1.75-.41v1.48Z"/>
  <path class="cls-1" d="m94.19,32.37c-.39-.04-.78-.1-1.18-.11-.65-.02-1.35.13-1.94-.06-.45-.14-1.03-.69-1.05-1.08-.02-.35.6-.94,1.04-1.06.68-.18,1.44-.04,2.16-.07.32-.01.64-.09.96-.14,0-.11,0-.21,0-.32-.25-.05-.5-.13-.74-.14-.8-.02-1.63.12-2.38-.07-.44-.11-.97-.67-1.05-1.11-.05-.31.57-1.02.93-1.05,1.51-.14,3.04-.15,4.56-.04.34.02.88.72.9,1.12.1,1.92.1,3.85,0,5.76-.02.39-.65,1.03-1.04,1.07-1.4.13-2.82.06-4.24.05-.75,0-1.19-.45-1.15-1.16.03-.7.5-1.09,1.24-1.08.73.01,1.45.01,2.18,0,.28,0,.55-.1.82-.15,0-.12,0-.24-.01-.36Z"/>
  <path class="cls-1" d="m72.95,31.26c0,.6,0,1.19,0,1.79,0,1.8-.26,2.37-1.1,2.4-.86.03-1.14-.56-1.14-2.36,0-.61,0-1.21,0-1.82-.15-.01-.3-.02-.45-.03-.07.26-.18.52-.19.79-.03.79.09,1.6-.06,2.35-.09.41-.66,1.03-.95,1-.43-.05-1.12-.56-1.15-.93-.14-1.45-.14-2.93,0-4.39.03-.37.71-.96,1.11-.99,1.85-.11,3.72-.06,5.57-.04.77,0,1.2.41,1.2,1.2,0,1.32,0,2.65,0,3.97,0,.72-.35,1.21-1.06,1.23-.77.02-1.14-.49-1.14-1.25,0-.72.01-1.43-.01-2.15,0-.27-.1-.54-.15-.8-.16.01-.32.02-.48.03Z"/>
  <path class="cls-1" d="m81.6,20.03c.27.06.53.16.8.17.76.02,1.52,0,2.28.01.73,0,1.22.39,1.21,1.1-.01.7-.49,1.1-1.22,1.12-.76.01-1.52-.02-2.28.02-.27.01-.54.17-.81.27l.07.37c.92,0,1.84.02,2.76,0,.79-.02,1.45.24,1.47,1.08.02.91-.66,1.19-1.49,1.17-1.23-.02-2.47,0-3.7,0-.9,0-1.32-.45-1.32-1.35.01-1.78.02-3.55,0-5.33,0-.91.43-1.35,1.31-1.37,1.31-.02,2.61-.02,3.92,0,.75,0,1.31.37,1.29,1.15-.02.79-.59,1.11-1.34,1.11-.96,0-1.92,0-2.89,0-.02.16-.04.31-.06.47Z"/>
  <path class="cls-1" d="m71.33,42.97c-.03.44.07.86-.1,1.12-.23.38-.66.93-.97.9-.4-.03-1.09-.53-1.1-.86-.11-2.03-.1-4.07-.01-6.11.01-.3.65-.76,1.04-.81.88-.12,1.78-.06,2.68,0,1.46.08,2.58,1.26,2.65,2.74.07,1.45-.96,2.67-2.47,2.88-.53.07-1.06.08-1.72.13Zm.06-3.85c-.11.99-.36,1.63.63,1.56.51-.03,1.32.08,1.1-.69-.11-.38-1-.53-1.73-.87Z"/>
  <path class="cls-1" d="m85.52,39.48c0,.4,0,.8,0,1.2-.03,2.01-1.36,3.48-3.21,3.56-1.93.08-3.52-1.25-3.71-3.22-.1-1.12-.05-2.25-.02-3.37.02-.7.39-1.21,1.13-1.22.79,0,1.17.53,1.19,1.28.03.94.02,1.89,0,2.83,0,.75.26,1.3,1.09,1.34.87.04,1.24-.49,1.25-1.3.02-.94.01-1.89.01-2.83,0-.76.32-1.31,1.12-1.31.8,0,1.14.54,1.14,1.3,0,.58,0,1.16,0,1.74Z"/>
</svg>