<?xml version="1.0" encoding="UTF-8"?>
<svg id="Layer_1" data-name="Layer 1" xmlns="http://www.w3.org/2000/svg" viewBox="0 0 110.76 110.06">
  <defs>
    <style>
      .cls-1 {
        fill: #2775ba;
      }
    </style>
  </defs>
  <path class="cls-1" d="m57.1,33.31c-.2.02-.39.03-.59.05-.16.01-.32.02-.47.03-.05,0-.11.01-.16.02v.07c.36,0,.71,0,1.06,0,1.29.03,2.56.2,3.83.39,2.15.32,4.26.78,6.35,1.37,3.05.86,6.01,1.98,8.87,3.37,2.08,1,4.08,2.13,6.03,3.36,3.14,1.97,6.04,4.26,8.79,6.74,2.48,2.24,4.81,4.64,6.93,7.23,1.11,1.36,2.16,2.76,3.23,4.16.39.52.75,1.07,1.12,1.6.07.1.1.19.01.31-1.29,1.72-2.61,3.43-4.03,5.04-2.54,2.88-5.26,5.58-8.23,8.02-1.74,1.43-3.56,2.78-5.43,4.03-.14.09-.24.11-.37-.02-.86-.79-1.73-1.57-2.59-2.35-.03-.03-.06-.07-.1-.12.07-.05.14-.1.2-.15.75-.52,1.52-1.02,2.25-1.55,2.77-2.02,5.36-4.25,7.81-6.65,1.92-1.89,3.75-3.86,5.44-5.95.35-.43.36-.43.03-.87-1.17-1.6-2.45-3.12-3.76-4.6-1.66-1.89-3.43-3.67-5.29-5.35-2.35-2.12-4.82-4.07-7.45-5.83-2.82-1.9-5.79-3.51-8.92-4.83-2.71-1.15-5.51-2.05-8.39-2.69-1.72-.38-3.44-.69-5.2-.82-1.54-.12-3.08-.23-4.62-.23-2.38-.01-4.74.2-7.09.59-2.22.36-4.39.88-6.54,1.55-2.89.9-5.66,2.07-8.34,3.47-2.35,1.23-4.6,2.64-6.77,4.18-2.36,1.67-4.58,3.52-6.71,5.47-2.36,2.17-4.51,4.53-6.51,7.03-.61.76-1.2,1.54-1.81,2.3-.1.13-.07.21.02.32.58.68,1.13,1.38,1.73,2.04,1.31,1.42,2.6,2.87,3.97,4.23,2.1,2.08,4.35,3.98,6.72,5.75,3.22,2.41,6.62,4.49,10.28,6.18,2.5,1.15,5.07,2.12,7.72,2.87,1.96.56,3.95,1,5.96,1.31,1.66.26,3.32.45,5,.49,1.49.04,2.99.06,4.49-.01,1.44-.07,2.88-.24,4.32-.43,2.53-.33,4.99-.96,7.42-1.72.59-.18.59-.18,1.05.23.89.81,1.77,1.62,2.68,2.45-.11.06-.21.13-.31.17-2.12.78-4.29,1.44-6.5,1.9-1.28.27-2.57.53-3.86.72-1.4.2-2.81.32-4.22.43-1.84.15-3.68.15-5.52.04-1.41-.09-2.82-.23-4.22-.39-2.25-.26-4.46-.75-6.65-1.34-2.04-.55-4.04-1.21-6.01-1.98-2.54-1-4.97-2.2-7.35-3.53-3.07-1.72-5.95-3.72-8.69-5.93-2.05-1.66-4.02-3.4-5.86-5.29-2.24-2.3-4.38-4.7-6.3-7.27-.21-.29-.41-.58-.63-.86-.09-.11-.07-.2,0-.31,1.39-2.05,2.87-4.03,4.47-5.93,1.99-2.37,4.1-4.62,6.39-6.7,1.73-1.57,3.53-3.07,5.41-4.47,1.35-1.01,2.76-1.93,4.18-2.85,2.56-1.65,5.25-3.05,8.05-4.24,2.35-.99,4.74-1.88,7.22-2.48,1.4-.34,2.81-.67,4.23-.94,1.72-.33,3.47-.55,5.23-.62.33-.01.65-.04.98-.09-.36-.02-.71-.04-1.07-.07,2.38,0,4.75,0,7.13,0Z"/>
  <path class="cls-1" d="m33.66,61.11c0-3.08.46-5.51,1.45-7.83,1.27-2.98,3.17-5.5,5.75-7.48,2.21-1.69,4.67-2.88,7.4-3.49,1.78-.4,3.59-.56,5.42-.44,2.4.16,4.7.73,6.86,1.78,1.13.54,2.22,1.17,3.23,1.92,2.53,1.88,4.44,4.26,5.8,7.09.78,1.63,1.28,3.35,1.54,5.13.22,1.47.25,2.94.12,4.41-.25,2.73-1.05,5.3-2.42,7.68-.24.42-.51.83-.77,1.24-.08.13-.07.2.04.31.94.85,1.87,1.7,2.79,2.56.19.18.34.22.6.11.89-.36,1.78-.32,2.54.3.68.54,1.31,1.14,1.96,1.73,1.21,1.1,2.41,2.2,3.62,3.3,1.45,1.32,2.89,2.65,4.34,3.97,1.03.94,2.07,1.88,3.1,2.83.18.17.35.35.52.52.97,1,1.14,2.18.63,3.42-.49,1.19-1.4,2.01-2.69,2.31-1.04.25-2,.03-2.8-.7-1.21-1.09-2.4-2.2-3.6-3.3-1.84-1.69-3.68-3.37-5.52-5.06-1.31-1.2-2.6-2.42-3.92-3.61-.78-.7-1.05-1.54-.88-2.55.01-.08-.03-.2-.08-.25-1-.91-2-1.81-2.99-2.73-.17-.16-.28-.13-.43,0-.82.74-1.67,1.42-2.61,2-1.63,1.03-3.37,1.8-5.23,2.31-1.76.47-3.55.67-5.38.63-2.35-.05-4.62-.5-6.79-1.41-3.16-1.32-5.83-3.29-7.89-6.04-1.4-1.86-2.42-3.91-3.04-6.15-.46-1.67-.69-3.36-.69-4.53Zm3.43-.57s-.04,0-.06,0c.1.91.15,1.83.31,2.73.61,3.31,2.17,6.12,4.65,8.41,2.23,2.06,4.83,3.33,7.81,3.86,1.48.26,2.98.3,4.47.13,1.81-.21,3.52-.74,5.16-1.54,1.84-.9,3.4-2.16,4.73-3.7,2.5-2.88,3.69-6.26,3.7-10.05,0-1.58-.28-3.14-.79-4.64-.86-2.54-2.29-4.7-4.28-6.51-2.31-2.1-5.03-3.31-8.1-3.78-1.93-.3-3.86-.2-5.76.25-1.9.44-3.65,1.21-5.25,2.32-1.96,1.35-3.53,3.07-4.69,5.14-1.28,2.29-1.92,4.75-1.92,7.38Z"/>
  <path class="cls-1" d="m56.69,52.79c-.09.04-.14.08-.2.1-1.1.35-1.82,1.5-1.82,2.52,0,1.18.7,2.24,1.79,2.66,1.08.42,2.3.13,3.09-.73.26-.28.44-.61.57-.96.02-.05.06-.1.1-.15.05.04.11.08.14.13.72,1.38,1.1,2.85,1.05,4.41-.06,2.06-.77,3.89-2.09,5.46-1.19,1.4-2.7,2.34-4.47,2.83-1.18.33-2.39.41-3.61.24-2.64-.38-4.7-1.72-6.21-3.89-.91-1.3-1.4-2.77-1.47-4.36-.16-3.34,1.22-5.95,3.93-7.84,1.86-1.29,3.96-1.73,6.21-1.43,1.02.14,1.97.47,2.88.93.03.01.05.04.12.08Z"/>
</svg>