<?xml version="1.0" encoding="UTF-8"?>
<svg id="Layer_1" data-name="Layer 1" xmlns="http://www.w3.org/2000/svg" viewBox="0 0 122.15 125.68">
  <defs>
    <style>
      .cls-1 {
        fill: #2775ba;
      }
    </style>
  </defs>
  <path class="cls-1" d="m24.58,69.04c-.78-1.55-1.61-2.99-2.25-4.5-3.49-8.23-3.56-16.53-.2-24.81,2.34-5.78,6.1-10.44,11.43-13.75,3.96-2.47,8.3-3.78,12.94-4.18.48-.04.98-.22,1.39-.47,3.66-2.19,7.58-3.68,11.78-4.39,5.77-.97,11.47-.56,17.05,1.19,10.68,3.35,19.21,9.52,24.75,19.43,3.42,6.12,4.86,12.72,4.21,19.73-.37,4.02-1.45,7.86-3.31,11.45-.26.5,0,.64.33.82,1.46.8,2.57,1.93,3.12,3.52.76,2.17.63,4.39-.49,6.34-1.56,2.71-3.32,5.32-5.15,7.86-1.29,1.77-3.23,2.67-5.38,3.03-.66.11-1.01.35-1.22,1.04-.79,2.52-1.83,4.93-3.34,7.12-2.11,3.07-5,5.07-8.48,6.21-4.41,1.45-8.85,2.81-13.27,4.21-3.58,1.13-7.17,1.16-10.75.06-4.57-1.41-9.14-2.82-13.68-4.33-5.05-1.68-8.39-5.21-10.41-10.05-.49-1.17-.86-2.38-1.33-3.56-.09-.23-.34-.52-.55-.54-3.62-.45-5.92-2.69-7.76-5.6-.91-1.44-1.88-2.84-2.76-4.29-1.23-2.04-1.78-4.24-1.28-6.61.48-2.32,1.94-3.84,4.1-4.72.17-.07.35-.13.53-.19Zm6.69,18.14c-.1-.6-.27-1.08-.21-1.52.07-.51.25-1.07.57-1.45.4-.46,1.01-.44,1.6-.2.7.28.77.91.94,1.51.63,2.28,1.13,4.61,1.93,6.83,1.62,4.5,4.47,7.9,9.19,9.41,4.45,1.42,8.89,2.84,13.36,4.19,2.12.64,4.32,1.03,6.52.47,2.48-.63,4.93-1.38,7.38-2.13,2.79-.85,5.59-1.69,8.36-2.62,2.01-.68,3.84-1.72,5.33-3.29,2.17-2.28,3.47-5.03,4.36-8,.52-1.74.89-3.53,1.34-5.29.23-.89,1.05-1.43,1.82-1.24.9.22,1.38,1.04,1.18,1.98-.08.4-.13.81-.22,1.33.32-.09.48-.13.63-.18,1.65-.58,2.71-1.84,3.64-3.23.99-1.5,1.99-2.99,2.92-4.53.43-.71.78-1.5,1-2.29.74-2.63-.63-4.89-3.15-5.02-.94-.05-1.92.28-2.84.59-1.06.36-1.89.18-2.31-.72-.38-.82-.07-1.68.92-2.1.87-.37,1.81-.61,2.74-.8.46-.09.75-.24.92-.66.1-.24.21-.48.33-.72,2.64-5.18,3.58-10.69,2.99-16.45-.68-6.62-3.25-12.51-7.56-17.54-6.6-7.7-14.99-12.24-25.03-13.64-6.85-.95-13.38.16-19.43,3.57-1.48.84-2.89,1.68-4.66,1.58-.16,0-.33.04-.5.06-5.14.57-9.66,2.6-13.47,6.05-5.81,5.26-8.68,11.96-9,19.72-.27,6.34,1.44,12.18,5.11,17.4.27.38.74.65,1.16.88.52.28,1.13.41,1.63.72.8.5,1,1.38.56,2.12-.39.66-1.28.89-2.09.58-.64-.25-1.29-.52-1.97-.65-2.39-.44-4.39,1.24-4.3,3.66.04.91.18,1.92.63,2.69,1.34,2.29,2.81,4.51,4.31,6.7.74,1.08,1.86,1.76,3.35,2.22Z"/>
  <path class="cls-1" d="m86.83,62.82c.73.97,1.49,1.81,2.05,2.77,2.6,4.4,2.45,8.78-.29,13.07-.32.5-.36.81.11,1.21.55.46,1.06.98,1.53,1.52.7.8.67,1.55,0,2.23-.67.66-1.44.66-2.22-.08-.69-.65-1.33-1.36-1.99-2.04-7.63,5.86-18.26,1.14-19.66-8.06-1.15,0-2.32,0-3.49,0-.91,0-1.82.01-2.73,0-.38,0-.54.1-.62.5-.97,5.15-4.64,8.97-9.81,9.93-6.46,1.2-13.02-3.01-14.19-9.91-.7-4.15.47-7.77,3.48-10.76.06-.06.12-.14.28-.34-.35-.04-.59-.09-.82-.09-1.44,0-2.88.02-4.31.02-1.14,0-1.85-.59-1.87-1.54-.02-1.02.64-1.59,1.87-1.59,14.65,0,29.29,0,43.94,0,4.65,0,9.3,0,13.95,0,1.37,0,2.13,1.23,1.48,2.36-.34.58-.89.77-1.53.76-1.58-.01-3.16-.03-4.75-.04-.13,0-.27.04-.43.07Zm-17.4,9.03c-.03,4.99,4,9.05,9.01,9.09,5,.03,9.11-4.01,9.14-8.97.02-5.06-3.98-9.13-9.02-9.16-5.02-.03-9.09,4-9.13,9.05Zm-30.95.03c-.05,4.88,3.96,9.01,8.8,9.07,5.11.06,9.31-3.99,9.34-9.01.03-4.93-4.03-9.08-8.92-9.13-5.14-.05-9.17,3.91-9.22,9.08Zm31.72-9.05h-14.46c.15.2.21.31.29.38,1.92,1.81,3.04,4.04,3.48,6.62.09.49.39.51.78.5,1.8-.02,3.6-.03,5.39,0,.5,0,.7-.1.8-.63.48-2.51,1.61-4.7,3.46-6.49.09-.09.14-.22.25-.39Z"/>
  <path class="cls-1" d="m35.1,55.63c-1.29,0-1.98-1.11-1.48-2.29,1.52-3.57,3.47-6.88,5.92-9.9,2.24-2.75,4.78-5.17,7.63-7.28.8-.59,1.51-.67,2.38-.19,6.66,3.65,13.29,7.35,19.53,11.71,2.34,1.63,4.64,3.31,6.95,4.98.83.6,1.05,1.3.71,2.05-.31.69-.98,1.08-1.7.88-.4-.11-.79-.35-1.12-.61-6.59-5.02-13.57-9.44-20.79-13.47-1.36-.76-2.73-1.49-4.08-2.27-.4-.23-.65-.12-.96.13-4.34,3.49-7.88,7.63-10.37,12.62-.43.86-.82,1.73-1.22,2.6-.29.63-.71,1.09-1.4,1.04Z"/>
  <path class="cls-1" d="m89.43,55.81c0,1.47-1.24,2.24-2.24,1.69-.37-.2-.7-.51-1-.8-5-4.82-10.44-9.09-16.34-12.75-.39-.24-.8-.44-1.18-.68-.89-.56-1.18-1.42-.77-2.19.42-.78,1.38-1.07,2.29-.5,2.1,1.28,4.2,2.59,6.22,3.99,4.32,2.99,8.32,6.39,12.11,10.03.43.41.72.95.92,1.22Z"/>
  <path class="cls-1" d="m63.3,95.62c-2.82,0-5.45-.27-7.99-1.16-.96-.33-1.42-.97-1.31-1.72.15-1.03,1.02-1.6,2.06-1.28,2.34.7,4.72,1.04,7.15,1.03,2.17,0,4.3-.23,6.39-.86.6-.18,1.28-.41,1.76.14.33.38.62.93.64,1.42.03.57-.34,1.06-.98,1.27-2.55.86-5.18,1.15-7.71,1.16Z"/>
  <path class="cls-1" d="m47.9,69.67c1.46.03,3.33.38,5,1.42,1.17.74,1.14,2.17-.02,2.79-.57.31-1.1.15-1.64-.12-2.45-1.26-4.89-1.21-7.38-.06-.46.21-1.06.31-1.56.23-.57-.09-.92-.59-1.01-1.18-.09-.69.23-1.21.79-1.58,1.61-1.06,3.41-1.46,5.81-1.49Z"/>
</svg>