<?xml version="1.0" encoding="UTF-8"?>
<svg id="Layer_1" data-name="Layer 1" xmlns="http://www.w3.org/2000/svg" viewBox="0 0 110.76 110.06">
  <defs>
    <style>
      .cls-1 {
        fill: #2775ba;
        stroke: #2775ba;
        stroke-miterlimit: 10;
        stroke-width: .4px;
      }
    </style>
  </defs>
  <path class="cls-1" d="m60.8,41.36c.29,0,.57,0,.86,0,11.59,0,23.17,0,34.76,0,.74,0,1.48.01,2.22.06.85.06,1.08.34.75,1.12-.75,1.81-1.46,3.65-2.41,5.36-3.64,6.58-9.12,11.19-15.83,14.42-3.28,1.58-6.7,2.75-10.25,3.56-.13.03-.27.07-.4.12-.08.03-.15.1-.22.16.54.77,1.14,1.47,1.59,2.27,2.38,4.25,1.39,9.08-2.42,12.12-2.41,1.92-5.2,3.07-8.08,4.03-1.07.36-2.17.64-3.24,1.01-.21.07-.48.4-.48.61-.03,2.61-.02,5.23-.02,7.84,0,.36.11.54.5.58,2.52.3,5.04.63,7.56.95.23.03.51-.03.68.09.25.17.42.46.62.7-.24.2-.47.56-.72.58-1.98.14-3.97.21-5.96.3-.67.03-1.34.05-2.01.07-.34,0-.7,0-.66.48.04.46-.27,1.06.5,1.24,1.68.41,3.36.84,5.04,1.25,4.1,1.02,8.19,2.05,12.29,3.06.47.12.96.23.86.86-.1.58-.57.63-1.07.63-10.27,0-20.54,0-30.81,0-3.89,0-7.77,0-11.66,0-.16,0-.32,0-.49,0-.47.02-.82-.16-.89-.66-.07-.51.29-.68.7-.78,1.79-.44,3.59-.87,5.38-1.32,3.98-.99,7.96-2.01,11.96-2.97.98-.24.6-.92.66-1.48.06-.64-.44-.61-.85-.63-2.82-.18-5.62-.53-8.32-1.36-1.4-.43-2.79-1.01-4.04-1.76-2.52-1.53-2.84-3.84-1.73-6.47.96-2.27,2.94-3.49,5.07-4.49,2.77-1.31,5.73-2.05,8.68-2.8,1.42-.37,1.18-.15,1.19-1.54.01-3.4,0-6.8.02-10.2,0-.64-.18-.87-.85-.92-2.85-.23-5.73-.36-8.55-.82-8.45-1.38-16.3-4.23-22.9-9.92-4.4-3.79-7.53-8.47-9.44-13.96-.38-1.09-.15-1.39,1-1.39,10.5,0,21,0,31.5-.02.53,0,1.1-.15,1.59-.36,3.34-1.46,6.67-2.96,10-4.44,4.04-1.79,8.09-3.53,11.69-6.14,1.53-1.11,2.93-2.36,3.81-4.06,1.85-3.6.41-8.41-3.22-10.23-3.93-1.97-7.94-1.9-11.8.31-1.3.75-2.23,1.87-2.69,3.32-.08.26-.12.65.01.85,1.6,2.27,1.35,4.66.5,7.09-.53,1.54-1.27,2.97-2.39,4.18-1.85,2-4.11,2.06-5.97.1-1.79-1.89-2.71-4.21-3.07-6.76-.32-2.29.33-4.27,2.16-5.66.92-.69,1.34-1.49,1.71-2.51,1.5-4.19,4.55-6.86,8.6-8.48,2.81-1.13,5.76-1.61,8.76-1.33,5.65.52,10.44,2.69,13.53,7.74,1.17,1.92,1.76,4.05,2.04,6.28.76,5.88-1.73,10.35-6.07,14.03-2.64,2.24-5.62,3.96-8.7,5.51-.22.11-.44.24-.66.36.01.08.02.16.04.24Zm-50.83,1.45c.05.2.05.31.1.41.99,1.98,1.83,4.05,3.01,5.91,3.84,6.04,9.37,10.07,15.89,12.8,6.78,2.83,13.89,4.07,21.2,4.23,1.16.02,1.3.15,1.3,1.33,0,3.68,0,7.36,0,11.03,0,.9.07.96.97.72,1-.26,1.99-.61,3.01-.79.76-.14.88-.51.88-1.19-.03-3.15-.01-6.29-.01-9.44,0-1.59.06-1.65,1.63-1.66,3.22-.02,6.41-.32,9.57-.92,5.32-1.01,10.43-2.61,15.19-5.24,5.87-3.24,10.55-7.68,13.63-13.7.56-1.1,1.02-2.25,1.58-3.49H9.97Zm35.41-1.68l.06.17c.13.02.27.05.4.05,3.58,0,7.17,0,10.75,0,.27,0,.55-.08.8-.19,4.14-1.86,8.2-3.86,11.72-6.78,2.94-2.44,5.2-5.33,5.7-9.27.44-3.44-.16-6.69-1.97-9.65-2.2-3.6-5.56-5.59-9.61-6.47-2.98-.65-5.97-.61-8.92.22-5.12,1.45-8.88,4.34-10.25,9.74-.14.55-.44.85-.93,1.11-1.35.71-2.27,1.83-2.41,3.35-.28,2.98.77,5.55,2.77,7.72,1.19,1.29,2.51,1.25,3.75,0,1.47-1.47,2.2-3.32,2.69-5.3.4-1.62.23-3.14-.82-4.46-.42-.54-.44-1.05-.27-1.61.58-2,1.79-3.54,3.6-4.56,3.61-2.05,7.42-2.2,11.32-.99,6.26,1.95,8.29,9.95,4.19,14.56-2.1,2.36-4.63,4.13-7.43,5.48-4.45,2.14-8.99,4.1-13.49,6.13-.56.25-1.11.52-1.66.78Zm10.9,54.75c-2.94-.73-5.76-1.32-8.51-2.15-1.97-.6-3.91-1.4-5.75-2.34-1.58-.81-1.54-1.75.09-2.44,2.14-.91,4.34-1.7,6.57-2.35,4.03-1.16,8.13-2.11,12.16-3.28,2.6-.75,5.08-1.84,7.29-3.46,4.61-3.37,4.99-9.1.82-13.01-.23-.22-.65-.4-.96-.37-1.97.22-3.93.5-5.9.77-.22.03-.43.12-.82.24.49.27.81.41,1.08.6,1.22.87,2.5,1.67,3.6,2.66,1.1,1,1.33,2.46.68,3.54-.38.64-.93,1.22-1.52,1.68-1.51,1.18-3.26,1.95-5.08,2.48-3.5,1.02-7.02,1.94-10.55,2.87-2.95.77-5.92,1.45-8.68,2.8-1.77.87-3.44,1.89-4.31,3.75-1.03,2.2-.68,3.92,1.49,5.13,1.1.61,2.3,1.08,3.52,1.41,4.56,1.22,9.25,1.45,13.94,1.54.24,0,.48-.05.83-.09Zm12.8,7.46s.02-.09.02-.14c-.08-.04-.15-.09-.23-.11-3.51-.89-7.02-1.78-10.53-2.66-2.12-.53-2.05-.19-2.02-2.48,0-.48-.17-.67-.64-.67-.9-.01-1.8-.06-2.7-.07-1.72-.02-1.47-.24-1.5,1.42,0,.12-.01.23,0,.35.08.74-.29,1.09-.97,1.26-3.09.75-6.18,1.52-9.28,2.29-.82.21-1.64.44-2.47.66.01.05.02.11.04.16h30.28Zm-11.37-25.5c.71-.23,1.33-.36,1.88-.61,1.63-.74,3.33-1.39,4.84-2.34,1.6-1,1.6-2.24.21-3.53-1.78-1.67-3.97-2.68-6.2-3.57-.72-.28-.78-.22-.78.55,0,2.89,0,5.78,0,8.67,0,.23.03.45.05.83Zm-1.39,12.37c0-1.18,0-2.35,0-3.53,0-.47-.18-.61-.64-.49-1.22.32-2.46.6-3.68.95-.21.06-.5.39-.5.59-.04,1.73-.04,3.46,0,5.19,0,.19.26.5.45.54,1.23.29,2.48.5,3.72.77.52.11.66-.08.65-.56-.02-1.15,0-2.31,0-3.46Zm-13.73-.11c.3.24.41.37.54.42,2.13.8,4.26,1.6,6.4,2.38.47.17.62-.08.61-.52-.01-1.36-.02-2.72,0-4.09,0-.54-.17-.7-.7-.53-1.69.54-3.39,1.02-5.08,1.56-.55.18-1.08.46-1.77.77Z"/>
</svg>