<?xml version="1.0" encoding="UTF-8"?>
<svg id="Layer_1" data-name="Layer 1" xmlns="http://www.w3.org/2000/svg" viewBox="0 0 122.15 125.68">
  <defs>
    <style>
      .cls-1 {
        fill: #2775ba;
        stroke: #2775ba;
        stroke-miterlimit: 10;
        stroke-width: .25px;
      }
    </style>
  </defs>
  <path class="cls-1" d="m25.47,47.4c2.25-.17,3.51,1.2,4.43,2.99,1.58,3.06,2.11,6.38,2.34,9.76.34,4.91-.01,9.74-1.79,14.39-.12.3-.24.61-.39.89-.99,1.86-2.17,3.47-5.04,3.27,1.58,2.84,2.84,5.53,4.49,7.96,6.26,9.22,14.83,15.16,25.91,16.81,13.26,1.98,24.53-2.27,33.67-12.02,5.41-5.77,8.72-12.67,10.17-20.45.54-2.92,2.47-4.54,5.43-4.55,3.99-.01,7.97,0,11.96,0,.78,0,1.57.03,1.59,1.04.03,1.05-.75,1.19-1.6,1.19-3.86,0-7.73,0-11.59,0-2.31,0-3.13.81-3.64,3.05-3.85,16.94-13.68,28.58-30.66,33.24-15.12,4.15-31.7-1.91-41.28-14.46-3.11-4.08-5.53-8.5-7.12-13.37-.06-.19-.16-.36-.24-.54-1.28.51-1.77,1.49-1.33,2.79.34,1,.75,1.97,1.18,2.93.28.63.56,1.36-.14,1.71-.45.22-1.29.12-1.74-.17-5.95-3.8-9.84-9.15-11.06-16.09-1.85-10.51,1.87-18.88,10.46-25.14.29-.21.6-.5.93-.56.47-.09,1.14-.19,1.42.06.28.25.35.97.22,1.4-.32,1.04-.83,2.02-1.21,3.05-.51,1.39-.15,2.26,1.25,3.06.34-.92.65-1.83,1.01-2.73,5.24-12.85,14.23-21.76,27.71-25.54,16.4-4.6,33.59,1.94,43.53,16.25,3.57,5.14,5.94,10.79,7.1,16.95.38,2.03,1.36,2.89,3.41,2.89,3.82,0,7.65,0,11.47,0,.28,0,.65-.1.84.03.42.29.75.7,1.11,1.07-.39.37-.77,1.06-1.17,1.07-4.43.07-8.87.1-13.3,0-2.28-.05-4.05-1.93-4.54-4.55-.74-3.98-1.98-7.79-3.88-11.36-6.09-11.46-15.33-18.84-28.23-21.03-10.68-1.81-20.4.86-28.98,7.47-5.53,4.25-9.59,9.67-12.36,16.06-.13.3-.24.6-.35.91-.02.07,0,.15.02.28Zm-7.15-.89c-5.78,5.28-8.27,11.79-7.38,19.53.71,6.21,5.05,12.36,7.52,13.47-.37-2.57.78-4.3,2.98-5.37-2.22-7.48-2.17-14.87,0-22.24-2.35-1.07-3.31-2.86-3.13-5.4Zm12.01,17.38c-.3-2.98-.4-5.01-.73-7-.38-2.27-.88-4.55-2.35-6.44-.84-1.08-1.55-1.13-2.32-.01-.66.95-1.23,2.03-1.55,3.14-1.73,5.89-1.8,11.84-.32,17.78.38,1.54,1.14,3.02,1.95,4.4.61,1.04,1.44,1.01,2.14.02.64-.91,1.3-1.93,1.53-3,.71-3.23,1.22-6.5,1.65-8.87Z"/>
  <path class="cls-1" d="m111.84,55.23c-1.46,0-2.93,0-4.39,0-2.29-.01-3.75-1.13-4.3-3.36-1.08-4.41-2.7-8.6-5.04-12.48-7.34-12.14-17.89-19.75-32.06-21.36-15.74-1.79-28.54,4.15-38.42,16.41-1.44,1.78-2.91,3.11-5.07,4.02-10.39,4.37-17.08,14.94-16.22,26.11.89,11.59,7.13,19.47,17.86,23.87.8.33,1.62.93,2.13,1.63,7.05,9.67,16.33,15.93,28.19,17.81,13.43,2.13,25.26-1.68,35.3-10.82,6.77-6.16,11.07-13.83,13.31-22.68.6-2.38,1.98-3.48,4.44-3.48,2.97,0,5.94,0,8.91,0,.85,0,1.77,0,1.75,1.15-.02,1.18-.99,1.08-1.81,1.08-2.89,0-5.78,0-8.66,0-1.6,0-2.06.39-2.47,1.92-3.75,13.91-11.68,24.58-24.68,31.05-18.24,9.08-40,4.47-53.26-11.23-2.18-2.58-4.57-4.46-7.57-6.08-10.93-5.94-16.49-15.4-15.59-27.85.86-11.95,7.42-20.25,18.43-24.97,1-.43,1.76-.98,2.43-1.87,7.72-10.32,17.88-16.73,30.73-18.29,13.85-1.68,25.93,2.56,36.08,12.09,6.78,6.36,11.12,14.22,13.43,23.2.39,1.52.88,1.91,2.48,1.91,2.89,0,5.77,0,8.66,0,.82,0,1.79-.1,1.8,1.08.01,1.15-.91,1.15-1.76,1.15-1.55-.01-3.09,0-4.64,0Z"/>
  <path class="cls-1" d="m84,42.84c.13-2.43-.67-4.57-2.12-6.42-.89-1.14-1.99-2.13-3.08-3.1-.63-.56-1.24-1.1-.65-1.92.61-.86,1.37-.43,2.01.07,4.57,3.56,6.85,8.13,6.13,14.02-.05.38-.07.83.08,1.16,1.38,3.2,2.8,6.39,4.21,9.58.06.14.16.26.51.36.1-2.63.34-5.26.24-7.88-.04-1.14-.73-2.29-1.25-3.38-.33-.7-.59-1.3.16-1.81.83-.56,1.34-.02,1.79.64,1.92,2.79,1.68,5.92,1.5,9.06-.12,2.19-.1,4.38-.21,6.57-.06,1.19.58,1.72,1.58,1.93.63.13,1.29.18,1.93.18,6.43.01,12.85.01,19.28.01.37,0,.82-.11,1.08.06.42.27.99.75.98,1.11-.01.38-.61.81-1.04,1.06-.27.16-.71.04-1.08.04-6.34,0-12.69-.04-19.03.02-3.71.03-3.94.64-3.87,3.82.06,2.8.36,5.6.44,8.4.06,1.9-.45,3.7-1.44,5.34-.41.68-.89,1.41-1.82.88-.91-.53-.48-1.21-.17-1.98.53-1.34,1.12-2.75,1.18-4.16.1-2.28-.2-4.57-.6-6.89-.17.4-.35.79-.51,1.19-.6,1.51-1.09,3.07-1.83,4.51-1.33,2.6-2.21,5.15-2.12,8.25.14,4.8-2.6,8.4-6.35,11.23-.61.46-1.3.67-1.8-.08-.46-.69-.16-1.28.49-1.76,2.74-2.03,4.68-4.6,5.35-8.01.07-.36.1-.72.12-1.09.01-.18-.02-.37-.05-.8-.63.75-1.1,1.34-1.6,1.9-3.38,3.84-7.52,6.54-12.3,8.3-.76.28-1.51.32-1.83-.57-.34-.93.36-1.3,1.1-1.56,6.8-2.47,11.83-6.97,15.27-13.3.23-.42.43-.86.78-1.56-.51.29-.82.42-1.08.61-2.94,2.23-5.88,4.47-8.8,6.73-.6.47-1.2.81-1.82.21-.72-.69-.34-1.37.29-1.86,3.39-2.59,6.69-5.3,10.24-7.65,2.18-1.45,3.68-3.13,4.38-5.65.6-2.17,1.52-4.21,3.73-5.58-2.78-1.79-3.42-4.69-4.4-7.36-.42-1.15-1.04-2.01-2.06-2.73-3.58-2.53-7.11-5.13-10.65-7.72-.49-.36-.91-.81-1.36-1.22-.55-.5-.81-1.09-.25-1.69.58-.62,1.21-.45,1.82.08,1.26,1.09,2.49,2.22,3.82,3.22,1.88,1.42,3.83,2.73,5.97,3.91-.14-.3-.27-.6-.42-.89-3.4-6.5-8.47-11.14-15.39-13.67-.79-.29-1.54-.64-1.16-1.62.37-.96,1.19-.75,1.97-.47,5.48,2.01,10.02,5.3,13.69,9.9Z"/>
</svg>