<?xml version="1.0" encoding="UTF-8"?>
<svg id="Layer_1" data-name="Layer 1" xmlns="http://www.w3.org/2000/svg" viewBox="0 0 93.05 110.06">
  <defs>
    <style>
      .cls-1 {
        fill: #2775ba;
      }
    </style>
  </defs>
  <g>
    <path class="cls-1" d="m45.37,105.69c-3.2,0-6.58-.01-10.22-.04-4.4-.03-8.48-1.34-11.78-3.77-3.31-2.44-5.71-5.91-6.95-10.04-.46-1.53-.73-3.25-.78-4.96-.1-3.19-.07-6.43-.05-9.57,0-.58,0-1.15.01-1.73.02-2.61,1.13-4.64,3.21-5.86,3.89-2.29,7.88-4.56,11.73-6.76,1.41-.8,2.82-1.61,4.22-2.41h0s0,0,0,0h.04c.09-.06.26-.13.36-.06l.09.06v.07c.13.21.26.42.39.62.29.47.57.92.91,1.31,2.16,2.51,4.37,5.05,6.51,7.51l1.73,1.98c.18.21.37.41.58.64.07.08.15.16.23.24l10.72-12.03.13.07c.35.18.71.37,1.08.56.89.46,1.81.94,2.75,1.44,1.34.72,2.68,1.44,4.03,2.16,2.58,1.39,5.25,2.82,7.89,4.2,2.86,1.49,4.23,3.79,4.17,7.05-.03,2.08-.03,4.2-.02,6.25,0,1.15,0,2.29,0,3.44-.01,4.44-1.32,8.54-3.8,11.87-2.48,3.34-6.04,5.75-10.28,6.99-1.59.46-3.44.71-5.51.73-3.64.04-7.38.06-11.4.06Zm-10.39-44.84s-.02,0-.02.01c-1.41.81-2.82,1.61-4.22,2.41-3.85,2.2-7.84,4.47-11.73,6.75-1.97,1.16-3.02,3.08-3.03,5.55,0,.58,0,1.15-.01,1.73-.02,3.13-.05,6.37.05,9.55.05,1.68.31,3.37.76,4.87,2.49,8.3,9.53,13.5,18.39,13.56,8.22.06,15.09.05,21.61-.02,2.03-.02,3.85-.26,5.41-.72,8.5-2.47,13.8-9.56,13.82-18.51,0-1.14,0-2.29,0-3.43,0-2.05-.02-4.17.02-6.26.05-3.1-1.25-5.3-3.98-6.72-2.64-1.38-5.31-2.81-7.89-4.2-1.34-.72-2.68-1.44-4.02-2.16-.93-.5-1.85-.98-2.74-1.44-.33-.17-.65-.34-.96-.5l-10.8,12.12-.14-.15c-.13-.14-.25-.27-.36-.39-.22-.23-.41-.44-.59-.65l-1.73-1.98c-2.14-2.45-4.35-4.99-6.51-7.51-.35-.41-.64-.87-.94-1.35-.12-.19-.24-.39-.37-.58Zm10.73,7.34l-.13-.11c-.08-.07-.16-.13-.23-.18-.15-.11-.28-.21-.39-.34-.39-.45-.78-.89-1.17-1.33-1.45-1.66-2.96-3.37-4.39-5.1-.3-.36-.46-.81-.61-1.26-.07-.19-.14-.39-.22-.58l-.04-.1.51-.64.14.11c2.45,1.91,4.69,2.87,6.81,2.87,2.19,0,4.25-1.02,6.24-3.07l.17-.17.39.69v.06c-.04.15-.05.32-.06.49-.03.4-.06.82-.29,1.09-1.63,1.9-3.26,3.72-4.99,5.64-.54.6-1.07,1.2-1.61,1.8l-.12.13Zm-6.77-8.95c.07.17.13.34.18.5.15.43.29.84.55,1.15,1.43,1.72,2.93,3.44,4.39,5.09.39.44.78.89,1.17,1.34.09.1.2.19.34.29.03.03.07.05.11.08.5-.56,1-1.12,1.5-1.67,1.73-1.92,3.36-3.74,4.98-5.64.16-.19.18-.54.21-.88.01-.15.02-.31.05-.47l-.09-.16c-2,1.99-4.1,2.99-6.33,2.99-2.16,0-4.45-.94-6.89-2.81l-.15.19Zm20.96-.16c-.29,0-.6-.13-.83-.24-.64-.31-1.27-.66-1.89-.99l-.47-.25c-.53-.29-.87-.72-.96-1.23-.08-.49.08-.99.47-1.41,4.72-5.19,6.48-11.69,5.52-20.43-.07-.66-.2-1.33-.32-1.97-.04-.24-.09-.47-.13-.71-1.08.14-2.14.28-3.2.42-2.45.32-4.77.63-7.13.92-6.45.81-11.78-1.07-15.83-5.59-.13-.15-.29-.27-.43-.39-.02,0-.04,0-.06,0-.01,0-.02,0-.03,0-.09.24-.18.48-.27.73-.24.65-.48,1.32-.77,1.96-.79,1.74-1.47,3.14-2.14,4.4-.34.63-.86,1.37-1.91,1.45-.1.07-.32.5-.32.78.03,3.8.64,7.51,1.81,11.03,1.05,3.16,2.44,5.68,4.24,7.72.22.24.49.61.41.99-.06.27-.28.49-.7.68l-.08.04c-.28.13-.58.27-.79.46-2.28,2.12-4.57,1.37-6.78.64-.51-.17-1.03-.34-1.55-.47l-.19-.05.06-.18c.22-.67.44-1.33.66-1.97.49-1.43.95-2.78,1.33-4.17.98-3.57,1.21-7.52.74-12.41-.31-3.2-.38-6.62,1.21-9.9,2.54-5.25,6.69-8.17,12.33-8.7,3.03-.28,6.27-.43,9.49.37,6.49,1.62,11.06,7.17,11.35,13.81.08,1.7-.01,3.43-.1,5.1-.04.7-.07,1.43-.1,2.14-.16,4.75.75,9.55,2.78,14.66.08.2.14.4.22.63.04.12.08.25.13.39l.06.18-.18.05c-.46.13-.91.25-1.36.38-1.41.39-2.74.77-4.1,1.12-.06.02-.13.02-.19.02Zm2.27-16.66c-.57,5.05-2.44,9.21-5.68,12.78-.31.34-.44.73-.38,1.11.07.39.34.74.77.97l.47.26c.61.33,1.24.67,1.87.98.35.17.61.24.77.2,1.36-.35,2.69-.72,4.09-1.11.39-.11.78-.22,1.18-.33-.02-.07-.05-.14-.07-.21-.07-.23-.14-.42-.21-.61-1.94-4.88-2.87-9.48-2.82-14.02Zm-36.13,14.87c.46.13.93.28,1.38.43,2.21.73,4.29,1.41,6.42-.56.25-.24.57-.38.89-.53l.08-.04c.3-.14.46-.28.49-.43.03-.16-.07-.38-.33-.67-1.83-2.07-3.24-4.64-4.31-7.84-1.19-3.55-1.8-7.3-1.83-11.14,0-.35.3-1.12.64-1.14.88-.06,1.32-.67,1.64-1.26.67-1.25,1.35-2.64,2.13-4.38.29-.63.53-1.3.76-1.94.11-.29.21-.58.32-.87l.05-.14.14.02c.06,0,.11.01.16.02.09,0,.17.01.25.07.16.13.34.27.49.45,4.03,4.49,9.1,6.28,15.51,5.47,2.36-.3,4.68-.6,7.13-.92,1.11-.15,2.23-.29,3.37-.44l.17-.02.03.17c.05.29.1.58.16.87.12.65.25,1.32.32,2,.14,1.26.22,2.47.25,3.64.05-1.23.09-2.48.03-3.7-.29-6.48-4.74-11.89-11.08-13.47-3.17-.79-6.37-.64-9.37-.36-5.5.51-9.55,3.37-12.03,8.49-1.55,3.19-1.48,6.55-1.17,9.7.48,4.94.24,8.92-.75,12.54-.38,1.4-.85,2.76-1.34,4.19-.2.58-.4,1.18-.6,1.78Zm3.47-21.56h0Zm16.43,22.72c-.59,0-1.21-.14-1.87-.42-4.88-2.06-8.21-5.67-9.89-10.73-.71-2.15-1.11-4.44-1.5-6.66-.1-.55-.19-1.11-.29-1.66-.08-.43.11-.99.57-1.71.67-1.04,1.38-2.05,2.12-3.12.3-.42.6-.86.9-1.3l.09-.13.14.07s.05.02.08.04c.12.05.29.13.45.24,3.8,2.64,8.09,3.7,13.13,3.22,1.95-.19,3.9-.37,5.86-.56l2.89-.28.04.14s.01.03.02.05c.03.07.07.19.08.31.42,4.91-.19,9.01-1.87,12.52-1.74,3.64-4.63,6.69-8.85,9.32-.7.43-1.4.65-2.13.65Zm-9.74-25.26c-.28.4-.55.79-.82,1.18-.74,1.07-1.45,2.07-2.11,3.11-.51.79-.56,1.22-.52,1.45.1.55.2,1.11.29,1.66.38,2.2.78,4.48,1.49,6.61,1.64,4.95,4.9,8.49,9.68,10.51,1.36.57,2.52.51,3.67-.21,8.13-5.08,11.39-11.71,10.54-21.51,0-.05-.02-.1-.04-.15l-2.61.25c-1.97.19-3.92.38-5.86.56-5.13.49-9.5-.59-13.37-3.28-.11-.08-.24-.14-.34-.18Zm-2.83-13.41l-.05-.23c-.14-.72-.29-1.43-.44-2.14-.34-1.63-.69-3.31-.93-4.98-.11-.73.07-1.38.5-1.89.53-.61,1.38-.96,2.42-.96,2.14-.02,4.32-.01,6.42-.01.88,0,1.76,0,2.63,0h3.11c2.62,0,5.24,0,7.86,0,1.25,0,2.15.33,2.68.99.53.66.67,1.62.4,2.86-.2.96-.4,1.94-.59,2.89-.13.67-.26,1.34-.4,2.01-.04.18-.1.35-.15.49-.02.05-.03.09-.05.12l-.06.18-.17-.06c-8.64-3.04-15.95-2.84-22.98.63l-.21.1Zm5.35-9.86c-1.28,0-2.57,0-3.85.01-.93,0-1.69.3-2.14.84-.37.43-.51.98-.42,1.6.24,1.65.59,3.33.93,4.95.13.64.26,1.27.39,1.92,7.02-3.39,14.3-3.58,22.88-.61.04-.12.09-.26.12-.4.14-.67.27-1.34.4-2,.19-.95.38-1.93.59-2.9.24-1.13.13-1.99-.33-2.56-.45-.56-1.26-.85-2.4-.85-2.62,0-5.24,0-7.86,0h-3.11c-.88,0-1.76,0-2.63,0-.85,0-1.71,0-2.57,0Z"/>
    <path class="cls-1" d="m45.37,106.19c-3.2,0-6.58-.01-10.22-.04-4.51-.03-8.68-1.37-12.08-3.87-3.4-2.5-5.87-6.07-7.13-10.3-.47-1.57-.75-3.33-.8-5.09-.1-3.18-.07-6.41-.05-9.54v-1.78c.03-2.8,1.23-4.97,3.47-6.29,3.87-2.27,7.84-4.54,11.67-6.72l3.89-2.22-.05-.1.54-.18c.4-.21.7-.09.83,0l.35.24-.03.2c.1.15.19.31.29.45.3.47.56.9.87,1.27,2.1,2.45,4.26,4.92,6.35,7.32l1.88,2.16c.13.15.27.3.42.47l10.61-11.92,1.71.89c.84.44,1.71.89,2.6,1.36,1.34.72,2.69,1.44,4.03,2.16,2.58,1.39,5.24,2.82,7.88,4.2,3.05,1.58,4.5,4.04,4.44,7.5-.03,2.07-.03,4.17-.02,6.21,0,1.18,0,2.33,0,3.47-.01,4.55-1.36,8.75-3.9,12.17-2.55,3.43-6.2,5.9-10.54,7.17-1.63.47-3.53.73-5.64.75-3.64.04-7.38.06-11.41.06Zm-10.56-44.67l-3.83,2.19c-3.84,2.19-7.82,4.46-11.72,6.75-1.81,1.06-2.77,2.83-2.79,5.13v1.73c-.04,3.12-.06,6.35.03,9.53.05,1.64.31,3.28.74,4.74,2.42,8.08,9.28,13.14,17.91,13.2,8.21.06,15.07.05,21.61-.02,1.99-.02,3.76-.26,5.27-.7,8.28-2.41,13.44-9.32,13.46-18.03,0-1.07,0-2.14,0-3.22v-.22c0-2.05-.02-4.18.02-6.27.05-2.9-1.17-4.95-3.71-6.27-2.63-1.37-5.29-2.8-7.86-4.18l-.17-.09c-1.3-.7-2.59-1.4-3.89-2.09-.91-.48-1.81-.95-2.68-1.4l-.68-.35-10.9,12.24-.87-.94c-.22-.24-.42-.45-.6-.66l-1.73-1.98c-2.14-2.46-4.35-5-6.51-7.51-.38-.44-.67-.91-.98-1.41-.04-.06-.08-.12-.11-.18Zm10.95,7.37l-.51-.42c-.08-.06-.15-.12-.22-.17-.17-.13-.32-.25-.47-.41l-1.17-1.33c-1.45-1.66-2.96-3.37-4.4-5.11-.35-.43-.54-.95-.7-1.41-.07-.19-.13-.38-.21-.55l-.16-.38,1.01-1.26.53.41c4.81,3.76,8.6,3.73,12.39-.16l.64-.65.81,1.43-.03.18c-.04.2-.05.35-.06.5-.03.46-.07.98-.41,1.38-1.65,1.92-3.27,3.73-4.99,5.65l-2.05,2.29Zm-5.93-8.68c.06.14.14.26.22.36,1.43,1.73,2.93,3.43,4.38,5.08l1.17,1.34s0,0,.01.01l1.18-1.32c1.73-1.93,3.36-3.74,4.97-5.63,0,0,0,0,0-.01-1.83,1.54-3.78,2.32-5.8,2.32h0c-1.97,0-3.99-.71-6.14-2.15Zm20.06-.62c-.4,0-.79-.17-1.05-.29-.65-.32-1.29-.66-1.91-1l-.47-.25c-.67-.36-1.1-.92-1.22-1.58-.11-.64.1-1.29.59-1.83,4.62-5.08,6.34-11.45,5.4-20.04-.07-.65-.19-1.3-.31-1.93l-.04-.24-3.08.4c-2.32.31-4.53.6-6.78.88-6.58.82-12.03-1.08-16.19-5.67l-.03.08c-.24.66-.49,1.34-.79,2-.79,1.75-1.48,3.16-2.16,4.43-.35.65-.93,1.5-2.09,1.69-.03.09-.09.23-.08.3.03,3.75.63,7.41,1.79,10.87,1.03,3.09,2.39,5.56,4.14,7.54.29.32.65.83.53,1.42-.09.43-.41.77-.97,1.04-.33.15-.59.27-.74.41-2.5,2.32-5.03,1.49-7.27.75-.5-.17-1.02-.33-1.51-.46l-.7-.18.23-.69c.21-.65.43-1.29.64-1.91.5-1.48.96-2.81,1.34-4.2.96-3.51,1.19-7.4.73-12.23-.32-3.28-.38-6.78,1.26-10.16,2.62-5.42,6.91-8.44,12.73-8.98,3.07-.28,6.36-.43,9.65.39,6.71,1.67,11.43,7.41,11.73,14.27.08,1.73-.01,3.47-.1,5.15-.04.7-.07,1.42-.1,2.13-.16,4.68.74,9.41,2.75,14.46.08.21.15.42.23.67l.36,1.06-2.05.57c-1.42.4-2.75.77-4.11,1.12-.1.03-.21.04-.32.04Zm1.99-13.07c-.95,3.39-2.61,6.37-5.03,9.02-.2.22-.3.47-.26.69.04.24.23.45.52.61l.47.26c.6.33,1.23.67,1.86.97.33.16.45.17.45.16,1.34-.34,2.66-.71,4.06-1.11l.67-.19c-.04-.1-.07-.2-.11-.3-1.39-3.49-2.26-6.83-2.64-10.11Zm-35.21,10.44c.3.09.59.19.88.28,2.17.72,4.03,1.33,5.94-.45.31-.29.69-.46,1.02-.61.12-.06.2-.1.25-.13-.03-.05-.08-.12-.17-.22-1.88-2.12-3.32-4.75-4.41-8.01-.29-.85-.54-1.72-.76-2.6-.11,2.24-.43,4.29-.96,6.24-.39,1.42-.85,2.78-1.34,4.21-.15.43-.29.86-.44,1.29Zm19.38-36.09c-1.38,0-2.75.1-4.07.22-5.31.49-9.23,3.25-11.63,8.21-.9,1.86-1.23,3.79-1.29,5.7.11-.07.23-.11.37-.12.6-.04.92-.43,1.23-.99.67-1.24,1.34-2.62,2.12-4.35.28-.62.52-1.27.75-1.9.11-.29.21-.59.32-.87l.19-.51.65.09c.13.01.34.03.53.18.18.14.38.31.55.5,3.91,4.36,8.84,6.09,15.08,5.31,2.36-.3,4.67-.6,7.13-.92l3.31-.43c-1.41-4.66-5.16-8.31-10.11-9.54-1.7-.43-3.43-.57-5.13-.57Zm-.12,38.09c-.66,0-1.33-.15-2.06-.46-5.02-2.12-8.44-5.83-10.17-11.03-.73-2.18-1.13-4.49-1.52-6.72l-.03-.15c-.09-.51-.18-1.01-.27-1.52-.1-.57.1-1.23.64-2.07.68-1.06,1.42-2.12,2.13-3.14l1.24-1.79.53.27c.19.09.4.18.59.31,3.69,2.57,7.88,3.59,12.8,3.13l9.16-.88.16.53c.04.11.11.27.12.47.43,5.01-.2,9.19-1.91,12.78-1.78,3.73-4.74,6.85-9.04,9.53-.78.49-1.57.73-2.4.73Zm-9.59-25.1l-.52.75c-.78,1.11-1.48,2.11-2.14,3.15-.49.76-.46,1.06-.45,1.09.09.5.18,1.01.27,1.51l.03.15c.38,2.18.77,4.44,1.47,6.53,1.6,4.81,4.76,8.24,9.4,10.2,1.21.51,2.2.46,3.21-.17,7.86-4.91,11.06-11.3,10.34-20.69l-7.99.77c-5.21.5-9.66-.59-13.61-3.3Zm-3.35-13.33l-.17-.87c-.14-.69-.28-1.38-.42-2.07-.35-1.7-.71-3.39-.95-5.07-.13-.88.09-1.67.62-2.29.62-.73,1.61-1.13,2.79-1.14,2.1-.02,4.24-.01,6.31-.01h5.86c2.62,0,5.24,0,7.86,0,1.41,0,2.44.4,3.07,1.17.63.78.8,1.88.5,3.28-.2.96-.4,1.93-.58,2.88-.14.7-.27,1.36-.4,2.02-.04.21-.11.41-.17.56l-.26.77-.66-.23c-8.51-2.99-15.69-2.8-22.59.61l-.8.39Zm5.72-10.09c-1.28,0-2.57,0-3.84.01-.78,0-1.41.24-1.77.66-.27.32-.38.72-.3,1.2.24,1.64.59,3.31.92,4.92l.02.11c.08.39.16.79.24,1.18,6.83-3.13,13.91-3.29,22.18-.52.13-.62.25-1.24.37-1.85.19-.95.38-1.94.59-2.9.21-.98.13-1.7-.23-2.14-.35-.44-1.03-.66-2.01-.67-2.62,0-5.24,0-7.85,0h-3.11s-5.21,0-5.21,0Z"/>
  </g>
  <g>
    <path class="cls-1" d="m27.22,88.33c-.38,0-.63-.08-.8-.26-.18-.18-.25-.46-.24-.88.03-.73.02-1.47.02-2.26,0-.3,0-.61,0-.94-.27,0-.55,0-.81,0-.76,0-1.47-.02-2.19.02-.34.02-.77,0-1.04-.26-.21-.2-.3-.51-.28-.98.05-1.92.05-3.88,0-5.85-.01-.46.07-.76.27-.95.2-.19.5-.27.97-.25.73.04,1.45.03,2.22.02.28,0,.56,0,.85,0v-4.27h8.26v4.24h4.39v.18c0,.51,0,1.01,0,1.5,0,1.13,0,2.21-.01,3.29,0,.26,0,.53.02.83.04.86.08,1.74-.36,2.23-.38.42-1.18.36-2.03.3-.33-.02-.66-.05-.95-.04-.24,0-.47,0-.75,0-.09,0-.19,0-.29,0,0,.32,0,.63,0,.93,0,.81-.01,1.58.01,2.33.01.4-.06.65-.23.82-.17.17-.42.25-.8.24-2.1-.03-4.18-.03-6.17,0-.01,0-.03,0-.04,0Zm-2.79-4.71c.31,0,.63,0,.96,0,.33,0,.66,0,.99,0h.18v.18c0,.39,0,.76,0,1.12,0,.79.01,1.54-.02,2.28-.01.31.03.5.13.61.1.1.29.15.58.15,2-.03,4.08-.03,6.18,0,.27,0,.44-.04.54-.13.09-.1.13-.27.12-.56-.03-.76-.02-1.53-.01-2.35,0-.36,0-.73,0-1.11v-.18h.18c.17,0,.33,0,.47,0,.27,0,.51,0,.74,0,.31-.01.65.02.99.04.69.05,1.47.11,1.73-.19.34-.38.3-1.19.27-1.97-.01-.29-.03-.58-.02-.85.02-1.08.02-2.15.01-3.28,0-.43,0-.87,0-1.32h-4.39v-4.24h-7.54v4.27h-.18c-.35,0-.69,0-1.02,0-.77,0-1.5.02-2.24-.02-.36-.02-.58.03-.7.14-.12.12-.17.33-.16.68.05,1.97.05,3.94,0,5.87,0,.36.05.59.17.72.13.13.37.18.77.16.42-.02.84-.03,1.26-.03Z"/>
    <path class="cls-1" d="m27.22,88.83c-.51,0-.89-.13-1.16-.41-.37-.38-.39-.89-.38-1.25.03-.71.02-1.44.02-2.21v-.47s-.33,0-.33,0c-.76,0-1.46-.02-2.16.02-.41.02-1,0-1.42-.4-.41-.4-.45-.97-.44-1.36.05-1.91.05-3.87,0-5.82-.01-.38.02-.93.42-1.32.4-.39.96-.41,1.35-.39.71.04,1.43.03,2.19.02h.35v-4.28h9.26v4.24h4.39v2.18c0,1.2.01,2.24,0,3.3,0,.24,0,.5.02.78.05.97.1,1.96-.49,2.61-.55.6-1.5.53-2.43.47-.31-.02-.63-.05-.9-.04-.18,0-.36,0-.56,0v.43c0,.8-.01,1.56.01,2.31.01.34-.02.83-.37,1.19-.35.36-.82.39-1.16.39-2.1-.03-4.17-.03-6.16,0h-.05Zm3.09-1.39c1.04,0,2.08,0,3.14.02.07,0,.12,0,.15,0,0-.04,0-.09,0-.17-.03-.77-.02-1.55-.02-2.37v-1.79s1.16,0,1.16,0c.27,0,.5,0,.72,0,.31,0,.67.01,1.01.04.41.03,1.2.08,1.37-.03.19-.21.15-1.01.12-1.6-.01-.31-.03-.61-.02-.89.02-1.07.02-2.14.01-3.27v-.82h-4.39v-4.24h-6.54v4.27h-1.6s-.1-.35-.1-.35h-.02v.36c-.77,0-1.5.02-2.24-.02-.2-.01-.29,0-.33.02,0,.02-.01.11,0,.3.05,1.98.05,3.96,0,5.89,0,.23.02.33.03.35,0,0,.07.01.23.01.04,0,.09,0,.15,0,.74-.04,1.47-.03,2.25-.02h1.67s0,1.8,0,1.8c0,.8.01,1.56-.02,2.3,0,.12,0,.19,0,.23.02,0,.08,0,.17,0,0,0,.02,0,.03,0,1-.02,2.03-.02,3.06-.02Z"/>
  </g>
  <g>
    <path class="cls-1" d="m45.85,87.02c-.99,0-1.52-.03-1.83-.34-.34-.34-.34-.95-.34-2.17v-10.62l.11-.05c.08-.04.14-.06.18-.08.06-.03.1-.05.15-.05,1.62-.19,2.43-.28,2.88.12.45.4.45,1.21.45,2.82,0,.83,0,1.67,0,2.5,0,2.18,0,4.43.02,6.64,0,.46-.08.75-.27.94-.19.19-.48.28-.95.28h-.09c-.11,0-.21,0-.3,0Zm-1.81-12.89v10.39c0,1.08,0,1.67.24,1.91.23.23.82.23,1.87.23h.09c.36,0,.57-.05.69-.17.12-.12.17-.33.16-.68-.03-2.22-.02-4.47-.02-6.65,0-.83,0-1.66,0-2.5,0-1.45,0-2.25-.33-2.55-.33-.29-1.13-.2-2.59-.04-.01,0-.02.01-.04.02-.02,0-.05.02-.08.04Zm.11-.06h0,0Zm.02,0h0Z"/>
    <path class="cls-1" d="m45.85,87.52c-1.05,0-1.72-.02-2.18-.48-.49-.49-.49-1.21-.49-2.52v-10.95l.57-.26c.09-.04.18-.08.31-.1,1.77-.2,2.65-.3,3.27.25.62.55.62,1.43.62,3.19v2.5c0,2.17-.01,4.42.02,6.63,0,.38-.03.92-.41,1.3-.38.38-.92.43-1.3.43h-.4Zm-1.31-12.99v9.99c0,.7,0,1.42.1,1.56.13.08.83.08,1.51.07.29,0,.4-.02.43-.03,0-.02.01-.11.01-.32-.03-2.2-.02-4.43-.02-6.59v-2.56c0-.99,0-2.02-.16-2.17-.16-.13-.99-.05-1.88.05Z"/>
  </g>
  <g>
    <path class="cls-1" d="m64.79,80.91c-1.5,0-2.96,0-4.39-.03-.32,0-.79-.44-.81-.75-.05-.64-.05-1.28-.04-1.96,0-.25,0-.51,0-.77v-.18h10.31v.18c0,.25,0,.49,0,.73,0,.69.01,1.4-.03,2.1-.02.29-.51.64-.8.65-1.47.02-2.88.02-4.24.02Zm-4.87-3.33c0,.2,0,.4,0,.59,0,.67-.02,1.3.04,1.92.01.13.33.42.46.42,2.73.04,5.54.04,8.62,0,.13,0,.42-.22.45-.31.05-.68.04-1.39.03-2.07,0-.19,0-.37,0-.56h-9.58Z"/>
    <path class="cls-1" d="m64.79,81.41c-1.51,0-2.96,0-4.39-.03-.57,0-1.26-.64-1.3-1.21-.06-.66-.05-1.31-.04-1.99,0-.26,0-.52,0-.78v-.68h11.31v1.41c.01.71.02,1.42-.03,2.14-.04.57-.76,1.11-1.3,1.11-1.47.02-2.88.02-4.25.02Zm-4.28-1.39c2.69.04,5.47.04,8.48,0,.03-.56.02-1.23.01-1.88v-.06h-8.59v.1c0,.63-.02,1.21.03,1.77.02.02.05.04.07.06Zm-.1,0h0,0Z"/>
  </g>
  <g>
    <path class="cls-1" d="m46.47,101.42c-.05,0-.1,0-.16,0-.57-.04-1.17-.02-1.68,0-.33.01-.56-.06-.72-.21-.16-.16-.24-.39-.23-.72.01-1.52,0-3.06,0-4.55,0-.65,0-1.3,0-1.95,0-.02,0-.05,0-.07,0-.11-.02-.25.07-.36.59-.68,1.32-.57,1.96-.48.32.05.63.09.91.05.09-.01.19.02.3.11.19.15.46.52.48.8.05.77.04,1.55.04,2.31,0,.3,0,.6,0,.89h0c0,.31,0,.62,0,.93,0,.71-.01,1.44.02,2.16.02.4-.07.69-.25.87-.16.16-.4.24-.72.24Zm-.94-.39c.26,0,.54,0,.8.02.3.02.5-.02.61-.13.11-.11.16-.3.14-.59-.03-.72-.02-1.46-.02-2.17,0-.31,0-.61,0-.92,0-.3,0-.6,0-.9,0-.75.01-1.53-.03-2.28-.01-.17-.28-.52-.39-.57-.33.05-.67,0-1-.05-.62-.09-1.16-.17-1.62.35,0,.03,0,.08,0,.11,0,.03,0,.07,0,.1,0,.65,0,1.3,0,1.95,0,1.49,0,3.03,0,4.55,0,.22.04.37.12.45.08.08.23.12.45.11.29,0,.6-.02.92-.02Zm-1.5-7.26h0Zm2.64-.29h0,0Zm-.03,0h0Z"/>
    <path class="cls-1" d="m46.47,101.92c-.06,0-.12,0-.19,0-.55-.04-1.13-.02-1.64,0-.46.02-.83-.1-1.09-.35-.26-.25-.39-.61-.39-1.08.01-1.51,0-3.05,0-4.54v-1.95c-.01-.19-.03-.5.19-.76.77-.88,1.71-.75,2.4-.65.29.04.55.08.77.05.23-.04.47.03.69.21.25.2.64.68.67,1.16.05.78.04,1.56.04,2.32,0,.32,0,.62,0,.92v.93c-.01.73-.02,1.44,0,2.13.02.55-.11.96-.4,1.25-.26.25-.61.38-1.07.38Zm-.94-1.39c.28,0,.56,0,.84.02.11,0,.18,0,.22,0,0-.02,0-.09,0-.2-.03-.73-.02-1.47-.02-2.18v-.93c0-.3,0-.6.01-.9,0-.74.01-1.51-.03-2.25,0,0-.04-.04-.07-.09-.31,0-.61-.03-.88-.07-.55-.08-.82-.1-1.05.06v1.94c0,1.49,0,3.04,0,4.55,0,.02,0,.04,0,.06.02,0,.04,0,.06,0,.29,0,.61-.02.93-.02Z"/>
  </g>
  <g>
    <path class="cls-1" d="m46.22,91.93c-.29,0-.66-.02-1.13-.04-.34-.02-.72-.03-1.17-.05h-.18s0-2.88,0-2.88c0-.06,0-.13.03-.2.45-.75,1.11-.65,1.65-.56.24.04.47.08.68.05.31-.05.62.15.92.34.09.06.19.12.28.16.14.08.13.25.12.41,0,.02,0,.05,0,.07-.02.51,0,.92,0,1.25.02.61.03.99-.21,1.22-.18.18-.47.23-1,.23Zm-2.11-.44c.38.01.71.03,1,.04,1.08.05,1.68.08,1.85-.09.12-.12.11-.43.1-.95,0-.34-.02-.75,0-1.28,0-.02,0-.05,0-.08,0-.03,0-.07,0-.1-.08-.04-.15-.09-.23-.14-.24-.15-.5-.31-.68-.28-.26.04-.53,0-.79-.05-.58-.1-.96-.13-1.26.36,0,0,0,0,0,0v.03s0,2.53,0,2.53Z"/>
    <path class="cls-1" d="m46.22,92.43c-.3,0-.67-.02-1.15-.04-.41-.02-.76-.03-1.16-.05l-.66-.02v-3.36c0-.07-.01-.26.11-.46.62-1.05,1.62-.88,2.16-.79.2.03.4.06.53.05.49-.07.92.19,1.26.41.1.06.17.11.25.15.43.23.4.69.38.89-.02.55-.01.95,0,1.27.02.7.03,1.2-.36,1.59-.32.31-.75.38-1.35.38Zm-1.61-1.42l.47.02c.64.03,1.22.06,1.48.03,0-.14,0-.35,0-.55,0-.32-.02-.71,0-1.2-.12-.07-.3-.19-.37-.2-.28.05-.6,0-.88-.05-.48-.08-.61-.07-.69.02v1.93Z"/>
  </g>
  <g>
    <rect class="cls-1" x="29.49" y="75.18" width="1.75" height="9.44" transform="translate(-49.54 110.26) rotate(-90)"/>
    <path class="cls-1" d="m35.58,81.27h-10.44v-2.75h10.44v2.75Zm-9.44-1h8.44v-.75h-8.44v.75Z"/>
  </g>
  <g>
    <rect class="cls-1" x="29.49" y="75.18" width="1.75" height="9.44"/>
    <path class="cls-1" d="m31.73,85.12h-2.75v-10.44h2.75v10.44Zm-1.75-1h.75v-8.44h-.75v8.44Z"/>
  </g>
</svg>