<?xml version="1.0" encoding="UTF-8"?>
<svg id="Layer_1" data-name="Layer 1" xmlns="http://www.w3.org/2000/svg" viewBox="0 0 133.54 125.68">
  <defs>
    <style>
      .cls-1 {
        fill: #2775ba;
      }
    </style>
  </defs>
  <path class="cls-1" d="m69.98,24.32c-7.61-.02-14.78,1.76-21.51,5.28-4.87,2.54-9.13,5.91-12.94,9.85-1.23,1.27-2.41,2.6-3.62,3.9-.18.19-.37.39-.56.56-.42.39-.93.47-1.31.23-.48-.29-.73-.9-.57-1.43.08-.27.19-.54.32-.78,1.41-2.61,3.04-5.07,5-7.3,2.27-2.59,4.76-4.93,7.57-6.91,5.01-3.53,10.46-6.13,16.46-7.55,4.37-1.03,8.77-1.43,13.24-1.23,3.43.16,6.78.77,10.08,1.73,3.27.95,6.38,2.25,9.31,3.95,2.78,1.62,5.33,3.57,7.53,5.94.27.3.49.65.72.99.33.48.25.93-.13,1.36-.38.43-.78.55-1.33.26-1.06-.56-2.11-1.17-3.15-1.77-4.74-2.74-9.73-4.85-15.09-6.02-3.29-.72-6.65-1.07-10.03-1.05Z"/>
  <g>
    <path class="cls-1" d="m70.24,48.56c-2.52,0-4.92.51-7.11,1.41.34.38.64.81.88,1.26,1.93-.75,4.03-1.16,6.23-1.16,9.47,0,17.15,7.67,17.15,17.15s-7.68,17.16-17.15,17.16-17.15-7.68-17.15-17.16c0-2.15.39-4.22,1.12-6.12-.45-.25-.87-.55-1.27-.9-.87,2.16-1.36,4.54-1.36,7.02,0,10.3,8.35,18.66,18.66,18.66s18.65-8.36,18.65-18.66-8.35-18.66-18.65-18.66Z"/>
    <path class="cls-1" d="m69.44,30.67c-20.79,0-37.63,16.85-37.63,37.64s16.84,37.64,37.63,37.64,37.64-16.85,37.64-37.64-16.85-37.64-37.64-37.64Zm34.39,44.69c-.02.1-.07.2-.11.3-1.32-.42-2.34-1.11-2.56-2.59-.06-.38-.18-.76-.28-1.13-.5-1.79-1.72-2.79-3.45-3.27-.07-.02-.16,0-.34,0,.15.12.2.21.28.26,1.47.94,2.23,2.33,2.45,4.04.06.51.25,1,.34,1.5.03.12-.04.34-.13.4-.71.44-1.44.82-2.13,1.29-.87.58-1.81.69-2.8.57-.17-.02-.33-.03-.65-.05.19.18.26.27.35.32,1.18.7,2.4.79,3.64.18.36-.18.72-.38,1.07-.59.83-.49,1.66-.56,2.5-.01.22.15.44.31.69.37.62.17.62.52.48,1.04-1.5,5.49-4.3,10.23-8.23,14.31-.47.48-.96.96-1.42,1.44-.27.28-.49.26-.75-.02-.74-.8-1.11-1.61-.63-2.74.34-.83.56-1.75.62-2.66.08-1.02-.58-1.81-1.23-2.53-.05.02-.1.04-.16.06.08.23.13.46.24.67.39.87.39,1.74.05,2.64-.35.9-.66,1.83-1.04,2.73-.05.13-.29.26-.46.28-.27.03-.56-.04-.84-.03-1.09.04-2.02-.3-2.76-1.12-.1-.11-.24-.21-.36-.31-.02-.02-.06-.01-.09-.02.07,1.03,1.35,2.28,2.52,2.47.23.03.46.1.69.1,1.34-.04,2.02.84,2.67,1.87-2.55,2.18-5.38,3.91-8.44,5.37-.08-.16-.16-.29-.22-.43-.25-.62-.48-1.27-.76-1.87-.18-.39-.16-.73.03-1.11.31-.66.63-1.35.85-2.06.27-.86-.05-1.65-.57-2.52-.03.26-.06.39-.05.52.16.93-.15,1.74-.61,2.52-.29.47-.54.96-.84,1.41-.07.11-.27.22-.4.22-.63-.02-1.27-.08-1.9-.11-.89-.04-1.66-.33-2.29-.98-.16-.16-.33-.3-.54-.42.24,1.02.77,1.87,1.75,2.25.77.29,1.61.37,2.42.54.92.2,1.85,1.4,1.73,2.33-.02.15-.26.32-.43.38-1.87.74-3.78,1.3-5.75,1.66-2.54.48-5.1.65-7.68.56-4.84-.17-9.46-1.26-13.81-3.42-.25-.12-.36-.24-.27-.53.35-1.2.7-2.41,1.06-3.61.21-.67.66-1.09,1.36-1.28.46-.11.91-.28,1.33-.52.89-.49,1.23-1.36,1.51-2.45-.21.19-.33.26-.4.36-.62.86-1.46,1.32-2.48,1.5-.42.07-.88.37-1.2.25-.32-.13-.49-.65-.72-1.01-.45-.69-.94-1.36-.91-2.23.01-.4.1-.81.16-1.26-.73.54-1.12,1.69-.84,2.59.21.65.51,1.28.82,1.89.25.49.31.97.13,1.48-.38,1.17-.76,2.36-1.12,3.54-.15.48-.38.29-.63.15-3.06-1.81-5.86-3.95-8.28-6.55-.63-.69-1.24-1.41-1.87-2.11-.29-.31-.26-.55,0-.87,1.42-1.82,1.06-1.96,3.58-1.89,1.51.05,2.66-.64,3.43-1.94.08-.15.13-.3.19-.42-.71.36-1.36.79-2.09,1.04-.49.17-1.08.08-1.62.09-.78.01-1.56,0-2.34-.02-.13,0-.35-.06-.37-.15-.35-1.12-.92-2.23-.53-3.46.19-.59.5-1.15.76-1.71-.83.23-1.83,1.57-1.96,2.59-.13,1.02.13,1.97.38,2.94.17.63.12,1.21-.29,1.75-.1.12-.18.26-.32.49-5.06-6.93-6.98-14.54-6.48-22.93.71.19,1.4.25,1.95.56.43.23.71.75,1,1.18.24.36.39.79.58,1.19.71,1.5,2.05,1.9,3.54,2.04.03,0,.07-.01.09-.02.03-.02.05-.05.11-.12-.28-.12-.54-.26-.81-.37-.83-.34-1.42-.91-1.78-1.73-.32-.77-.65-1.52-.98-2.26.61-.59,1.27-1.23,1.92-1.85.62-.59,1.37-.93,2.23-1.01.21-.02.42-.04.77-.08-.23-.12-.34-.21-.46-.25-1.11-.35-2.17-.25-3.14.46-.46.33-.89.7-1.34,1.04-.42.33-.87.43-1.4.25-.56-.19-1.14-.35-1.72-.51-.3-.07-.38-.22-.34-.53.33-2.41.93-4.75,1.73-7.05,1.45-4.22,3.83-7.88,6.64-11.31.17-.21.32-.42.49-.62.81.55,1.37,1.95,1.13,2.87-.15.58-.32,1.16-.47,1.74-.34,1.38.01,2.6.96,3.64.32.33.69.62,1.12.91-1.42-1.97-1.29-3.96-.19-5.89,1.2.05,2.41.07,3.61.18,1.2.1,2.09.82,2.94,1.66-.04-.13-.06-.27-.12-.39-.74-1.73-2.08-2.58-3.94-2.66-.28-.01-.57,0-.85-.01-.7-.05-1.25-.32-1.6-.97-.36-.67-.81-1.3-1.18-1.96-.08-.15-.08-.49.02-.57,1.71-1.45,3.36-3,5.21-4.28,4.25-2.93,8.99-4.69,14.08-5.52.88-.15,1.78-.2,2.69-.3.26,1.29.08,2.34-.93,3.22-1.58,1.35-2,3.54-1.19,5.38.24-.94.3-2.05.78-2.92.5-.89,1.4-1.57,2.06-2.26,1.09.73,2.1,1.4,3.1,2.09.99.66,1.34,1.7,1.6,2.78.05.22.09.45.16.79.11-.21.21-.31.23-.44.29-1.78-.17-3.45-1.78-4.58-.42-.29-.82-.56-1.24-.84-1.1-.74-1.19-1.85-1.09-3.02.01-.1.34-.27.51-.27,1.82.11,3.65.15,5.46.4,4.73.67,9.16,2.28,13.2,4.87,1.54.99,1.28.49.62,2.17-.2.49-.59.74-1.06.89-.35.12-.73.21-1.07.34-1.16.48-1.93,1.65-1.78,2.76.1-.11.2-.19.25-.29.54-.91,1.39-1.32,2.39-1.52.45-.09.88-.27,1.33-.35.16-.03.39.03.5.15.23.22.36.53.57.77.82.93,1.3,1.97,1.07,3.26-.01.06.01.13.03.31.11-.16.19-.24.24-.33.6-1.27.64-2.51-.2-3.72-.23-.33-.44-.69-.63-1.05-.32-.57-.24-1.15.26-1.75.69.59,1.35,1.18,2.04,1.78,3.56,3.05,6.34,6.71,8.43,10.9.55,1.1.98,2.27,1.47,3.41.15.33.05.48-.26.6-.6.26-1.17.59-1.79.82-.24.08-.6.06-.83-.07-.49-.27-.92-.64-1.37-1-1.12-.87-2.88-.97-3.87-.2-.03.03-.06.07-.18.21.43,0,.78-.02,1.11,0,.78.06,1.47.31,2.09.83.73.6,1.51,1.15,2.33,1.8-.35,1.64-1.03,3.2-3.01,3.8l.09.17c.22-.03.45-.06.66-.09,1.44-.23,2.4-1.07,2.94-2.4.07-.17.17-.32.22-.49.28-1.08,1.05-1.66,2.05-2.04.33-.12.5-.09.58.25.31,1.24.66,2.46.91,3.71.54,2.76.69,5.57.52,8.37-.1,1.68-.42,3.34-.63,5Z"/>
    <path class="cls-1" d="m61.93,54.76c-.03,2.38-1.94,4.29-4.26,4.28-.79,0-1.53-.24-2.15-.62-.44-.28-.82-.63-1.12-1.05-.57-.75-.9-1.68-.88-2.69.01-.61.12-1.17.34-1.68.42-.99,1.18-1.77,2.16-2.17.53-.23,1.11-.34,1.73-.34.98.02,1.87.36,2.58.93.4.31.74.71,1.01,1.14.38.64.6,1.4.59,2.2Z"/>
    <path class="cls-1" d="m77.72,67.21c-.05,4.03-3.28,7.27-7.23,7.25-1.33,0-2.58-.39-3.63-1.06-.75-.48-1.39-1.08-1.91-1.78-.97-1.27-1.53-2.85-1.5-4.57.01-1.03.22-1.98.59-2.86.71-1.67,2-2.98,3.67-3.68.88-.38,1.88-.59,2.93-.57,1.66.02,3.18.6,4.38,1.57.67.54,1.26,1.19,1.69,1.94.65,1.09,1.03,2.38,1.01,3.75Z"/>
  </g>
  <path class="cls-1" d="m54.4,57.36c-.57-.75-.9-1.68-.88-2.69.01-.61.12-1.17.34-1.68.42-.99,1.18-1.77,2.16-2.17.53-.23,1.11-.34,1.73-.34.98.02,1.87.36,2.58.93.4.31.74.71,1.01,1.14.38.64.6,1.4.59,2.2-.03,2.38-1.94,4.29-4.26,4.28-.79,0-1.53-.24-2.15-.62-.44-.28-.82-.63-1.12-1.05Z"/>
  <path class="cls-1" d="m64.95,71.62c-.97-1.27-1.53-2.85-1.5-4.57.01-1.03.22-1.98.59-2.86.71-1.67,2-2.98,3.67-3.68.88-.38,1.88-.59,2.93-.57,1.66.02,3.18.6,4.38,1.57.67.54,1.26,1.19,1.69,1.94.65,1.09,1.03,2.38,1.01,3.75-.05,4.03-3.28,7.27-7.23,7.25-1.33,0-2.58-.39-3.63-1.06-.75-.48-1.39-1.08-1.91-1.78Z"/>
  <path class="cls-1" d="m88.89,67.22c0,10.3-8.35,18.66-18.65,18.66s-18.66-8.36-18.66-18.66c0-2.48.49-4.86,1.36-7.02.39.35.82.65,1.27.9-.73,1.9-1.12,3.97-1.12,6.12,0,9.48,7.67,17.16,17.15,17.16s17.15-7.68,17.15-17.16-7.68-17.15-17.15-17.15c-2.2,0-4.3.42-6.23,1.16-.24-.45-.54-.87-.88-1.26,2.19-.9,4.59-1.41,7.11-1.41,10.3,0,18.65,8.36,18.65,18.66Z"/>
  <path class="cls-1" d="m69.44,30.67c-20.79,0-37.63,16.85-37.63,37.64s16.84,37.64,37.63,37.64,37.64-16.85,37.64-37.64-16.85-37.64-37.64-37.64Zm34.39,44.69c-.02.1-.07.2-.11.3-1.32-.42-2.34-1.11-2.56-2.59-.06-.38-.18-.76-.28-1.13-.5-1.79-1.72-2.79-3.45-3.27-.07-.02-.16,0-.34,0,.15.12.2.21.28.26,1.47.94,2.23,2.33,2.45,4.04.06.51.25,1,.34,1.5.03.12-.04.34-.13.4-.71.44-1.44.82-2.13,1.29-.87.58-1.81.69-2.8.57-.17-.02-.33-.03-.65-.05.19.18.26.27.35.32,1.18.7,2.4.79,3.64.18.36-.18.72-.38,1.07-.59.83-.49,1.66-.56,2.5-.01.22.15.44.31.69.37.62.17.62.52.48,1.04-1.5,5.49-4.3,10.23-8.23,14.31-.47.48-.96.96-1.42,1.44-.27.28-.49.26-.75-.02-.74-.8-1.11-1.61-.63-2.74.34-.83.56-1.75.62-2.66.08-1.02-.58-1.81-1.23-2.53-.05.02-.1.04-.16.06.08.23.13.46.24.67.39.87.39,1.74.05,2.64-.35.9-.66,1.83-1.04,2.73-.05.13-.29.26-.46.28-.27.03-.56-.04-.84-.03-1.09.04-2.02-.3-2.76-1.12-.1-.11-.24-.21-.36-.31-.02-.02-.06-.01-.09-.02.07,1.03,1.35,2.28,2.52,2.47.23.03.46.1.69.1,1.34-.04,2.02.84,2.67,1.87-2.55,2.18-5.38,3.91-8.44,5.37-.08-.16-.16-.29-.22-.43-.25-.62-.48-1.27-.76-1.87-.18-.39-.16-.73.03-1.11.31-.66.63-1.35.85-2.06.27-.86-.05-1.65-.57-2.52-.03.26-.06.39-.05.52.16.93-.15,1.74-.61,2.52-.29.47-.54.96-.84,1.41-.07.11-.27.22-.4.22-.63-.02-1.27-.08-1.9-.11-.89-.04-1.66-.33-2.29-.98-.16-.16-.33-.3-.54-.42.24,1.02.77,1.87,1.75,2.25.77.29,1.61.37,2.42.54.92.2,1.85,1.4,1.73,2.33-.02.15-.26.32-.43.38-1.87.74-3.78,1.3-5.75,1.66-2.54.48-5.1.65-7.68.56-4.84-.17-9.46-1.26-13.81-3.42-.25-.12-.36-.24-.27-.53.35-1.2.7-2.41,1.06-3.61.21-.67.66-1.09,1.36-1.28.46-.11.91-.28,1.33-.52.89-.49,1.23-1.36,1.51-2.45-.21.19-.33.26-.4.36-.62.86-1.46,1.32-2.48,1.5-.42.07-.88.37-1.2.25-.32-.13-.49-.65-.72-1.01-.45-.69-.94-1.36-.91-2.23.01-.4.1-.81.16-1.26-.73.54-1.12,1.69-.84,2.59.21.65.51,1.28.82,1.89.25.49.31.97.13,1.48-.38,1.17-.76,2.36-1.12,3.54-.15.48-.38.29-.63.15-3.06-1.81-5.86-3.95-8.28-6.55-.63-.69-1.24-1.41-1.87-2.11-.29-.31-.26-.55,0-.87,1.42-1.82,1.06-1.96,3.58-1.89,1.51.05,2.66-.64,3.43-1.94.08-.15.13-.3.19-.42-.71.36-1.36.79-2.09,1.04-.49.17-1.08.08-1.62.09-.78.01-1.56,0-2.34-.02-.13,0-.35-.06-.37-.15-.35-1.12-.92-2.23-.53-3.46.19-.59.5-1.15.76-1.71-.83.23-1.83,1.57-1.96,2.59-.13,1.02.13,1.97.38,2.94.17.63.12,1.21-.29,1.75-.1.12-.18.26-.32.49-5.06-6.93-6.98-14.54-6.48-22.93.71.19,1.4.25,1.95.56.43.23.71.75,1,1.18.24.36.39.79.58,1.19.71,1.5,2.05,1.9,3.54,2.04.03,0,.07-.01.09-.02.03-.02.05-.05.11-.12-.28-.12-.54-.26-.81-.37-.83-.34-1.42-.91-1.78-1.73-.32-.77-.65-1.52-.98-2.26.61-.59,1.27-1.23,1.92-1.85.62-.59,1.37-.93,2.23-1.01.21-.02.42-.04.77-.08-.23-.12-.34-.21-.46-.25-1.11-.35-2.17-.25-3.14.46-.46.33-.89.7-1.34,1.04-.42.33-.87.43-1.4.25-.56-.19-1.14-.35-1.72-.51-.3-.07-.38-.22-.34-.53.33-2.41.93-4.75,1.73-7.05,1.45-4.22,3.83-7.88,6.64-11.31.17-.21.32-.42.49-.62.81.55,1.37,1.95,1.13,2.87-.15.58-.32,1.16-.47,1.74-.34,1.38.01,2.6.96,3.64.32.33.69.62,1.12.91-1.42-1.97-1.29-3.96-.19-5.89,1.2.05,2.41.07,3.61.18,1.2.1,2.09.82,2.94,1.66-.04-.13-.06-.27-.12-.39-.74-1.73-2.08-2.58-3.94-2.66-.28-.01-.57,0-.85-.01-.7-.05-1.25-.32-1.6-.97-.36-.67-.81-1.3-1.18-1.96-.08-.15-.08-.49.02-.57,1.71-1.45,3.36-3,5.21-4.28,4.25-2.93,8.99-4.69,14.08-5.52.88-.15,1.78-.2,2.69-.3.26,1.29.08,2.34-.93,3.22-1.58,1.35-2,3.54-1.19,5.38.24-.94.3-2.05.78-2.92.5-.89,1.4-1.57,2.06-2.26,1.09.73,2.1,1.4,3.1,2.09.99.66,1.34,1.7,1.6,2.78.05.22.09.45.16.79.11-.21.21-.31.23-.44.29-1.78-.17-3.45-1.78-4.58-.42-.29-.82-.56-1.24-.84-1.1-.74-1.19-1.85-1.09-3.02.01-.1.34-.27.51-.27,1.82.11,3.65.15,5.46.4,4.73.67,9.16,2.28,13.2,4.87,1.54.99,1.28.49.62,2.17-.2.49-.59.74-1.06.89-.35.12-.73.21-1.07.34-1.16.48-1.93,1.65-1.78,2.76.1-.11.2-.19.25-.29.54-.91,1.39-1.32,2.39-1.52.45-.09.88-.27,1.33-.35.16-.03.39.03.5.15.23.22.36.53.57.77.82.93,1.3,1.97,1.07,3.26-.01.06.01.13.03.31.11-.16.19-.24.24-.33.6-1.27.64-2.51-.2-3.72-.23-.33-.44-.69-.63-1.05-.32-.57-.24-1.15.26-1.75.69.59,1.35,1.18,2.04,1.78,3.56,3.05,6.34,6.71,8.43,10.9.55,1.1.98,2.27,1.47,3.41.15.33.05.48-.26.6-.6.26-1.17.59-1.79.82-.24.08-.6.06-.83-.07-.49-.27-.92-.64-1.37-1-1.12-.87-2.88-.97-3.87-.2-.03.03-.06.07-.18.21.43,0,.78-.02,1.11,0,.78.06,1.47.31,2.09.83.73.6,1.51,1.15,2.33,1.8-.35,1.64-1.03,3.2-3.01,3.8l.09.17c.22-.03.45-.06.66-.09,1.44-.23,2.4-1.07,2.94-2.4.07-.17.17-.32.22-.49.28-1.08,1.05-1.66,2.05-2.04.33-.12.5-.09.58.25.31,1.24.66,2.46.91,3.71.54,2.76.69,5.57.52,8.37-.1,1.68-.42,3.34-.63,5Z"/>
</svg>